<svg id="Layer_1" data-name="Layer 1" xmlns="http://www.w3.org/2000/svg" viewBox="0 0 341.14 255.94"><defs><style>.cls-1,.cls-2{fill:#154955;stroke:#164955;}.cls-1,.cls-2,.cls-4{stroke-miterlimit:10;}.cls-1{stroke-width:0.25px;}.cls-2{stroke-width:4px;}.cls-3{fill:#6b6b6b;}.cls-4{fill:none;stroke:#154955;}.cls-5{fill:#7e1e5a;}</style></defs><path class="cls-1" d="M43.52,95.53v17a2.74,2.74,0,0,0,1.83,2.7,21.86,21.86,0,0,0,5.48,1.29q1,.16,1,1.41a7.31,7.31,0,0,1-.16,1.41c-1.61-.11-3.43-.21-5.48-.29s-4.26-.12-6.64-.12c-1.44,0-3.07,0-4.9.12s-3.54.18-5.14.29a7.27,7.27,0,0,1-.17-1.33c0-.77.28-1.21.83-1.33a18,18,0,0,0,4.44-1.28,2.38,2.38,0,0,0,1.12-2.28V70.88a2.57,2.57,0,0,0-1.29-2.41,13.3,13.3,0,0,0-4.6-1.16c-.56-.11-.83-.61-.83-1.49a5.16,5.16,0,0,1,.16-1.25c1.55.11,3.2.21,4.94.29S37.49,65,39,65h11.7q9,0,13.45,4.23a14.37,14.37,0,0,1,4.48,11,13.38,13.38,0,0,1-1.2,5.4A15.47,15.47,0,0,1,64,90.51a18.22,18.22,0,0,1-5.64,3.61,19.46,19.46,0,0,1-7.6,1.41Zm4.4-3.4q5.8,0,9-2.58C59,87.84,60,84.93,60,80.84A19.06,19.06,0,0,0,59.46,76a10.13,10.13,0,0,0-2-3.94,9.84,9.84,0,0,0-3.74-2.7,14.86,14.86,0,0,0-5.81-1h-4.4V92.13Z" transform="translate(-5.84 -4.94)"/><path class="cls-1" d="M99.47,111.22a1.74,1.74,0,0,1,1.25-.58c.55,0,1.07.47,1.57,1.41A24.44,24.44,0,0,1,99.8,115a15.73,15.73,0,0,1-3.36,2.53A18.16,18.16,0,0,1,92,119.27a22.45,22.45,0,0,1-5.73.66A18.39,18.39,0,0,1,80,118.85a14.37,14.37,0,0,1-5.27-3.32A16.35,16.35,0,0,1,71,110a20.21,20.21,0,0,1-1.37-7.8,18.65,18.65,0,0,1,1.62-7.8,20,20,0,0,1,4.19-6.1,19.77,19.77,0,0,1,5.68-4,14.57,14.57,0,0,1,6-1.41q7.72,0,11.25,4.49T102,99.1a.44.44,0,0,1-.5.5l-24,1.08a18.73,18.73,0,0,0,.91,6,14.53,14.53,0,0,0,2.56,4.73,11.65,11.65,0,0,0,4,3.11,12.23,12.23,0,0,0,5.33,1.13,11.06,11.06,0,0,0,5.09-1.25A13.34,13.34,0,0,0,99.47,111.22ZM86.06,85.9a7.47,7.47,0,0,0-6.44,3.24A14.26,14.26,0,0,0,77.3,97.6l15.61-.74c.83,0,1.24-.36,1.24-1.08a12.14,12.14,0,0,0-.49-3.32,11,11,0,0,0-1.49-3.2,8.38,8.38,0,0,0-2.52-2.4A6.6,6.6,0,0,0,86.06,85.9Z" transform="translate(-5.84 -4.94)"/><path class="cls-1" d="M127.52,114a1.91,1.91,0,0,1,.7-.5,2.1,2.1,0,0,1,.46-.08c.5,0,.94.36,1.33,1.08a20.52,20.52,0,0,1-4.65,3.9,10.2,10.2,0,0,1-5.31,1.49,12.83,12.83,0,0,1-3.15-.37,5.44,5.44,0,0,1-2.58-1.45,7.5,7.5,0,0,1-1.7-3,15.87,15.87,0,0,1-.62-4.86V87.4h-5v-.92a2.81,2.81,0,0,1,.21-1.08.83.83,0,0,1,.87-.49,5.53,5.53,0,0,0,3.65-1.17,9.05,9.05,0,0,0,2.32-3c.67-1.33,1.25-2.58,1.75-3.74s1.05-1.74,1.66-1.74H119v8.63h9.71a6.94,6.94,0,0,1-.37,2.61,1.37,1.37,0,0,1-1.37.88h-8V108a28.66,28.66,0,0,0,.25,4.27,7.29,7.29,0,0,0,.75,2.49,2.26,2.26,0,0,0,1.16,1.12,4.12,4.12,0,0,0,1.49.25,5.59,5.59,0,0,0,2.62-.62A15.14,15.14,0,0,0,127.52,114Z" transform="translate(-5.84 -4.94)"/><path class="cls-1" d="M132.75,101.42a18.19,18.19,0,0,1,1.45-7.22A18.31,18.31,0,0,1,144,84.37a18.16,18.16,0,0,1,7.27-1.46,19.9,19.9,0,0,1,7.47,1.37,17.61,17.61,0,0,1,5.85,3.78,16.92,16.92,0,0,1,3.82,5.85,20.22,20.22,0,0,1,1.37,7.51,18.07,18.07,0,0,1-1.46,7.26,18.39,18.39,0,0,1-9.79,9.8,18.07,18.07,0,0,1-7.26,1.45,19.9,19.9,0,0,1-7.47-1.37,17.46,17.46,0,0,1-5.85-3.78,16.71,16.71,0,0,1-3.82-5.8A20,20,0,0,1,132.75,101.42Zm7.8-2.74a31.55,31.55,0,0,0,.66,6.31,22.07,22.07,0,0,0,2,5.85,13.07,13.07,0,0,0,3.53,4.32,8.18,8.18,0,0,0,5.22,1.7,8.82,8.82,0,0,0,7.35-3.32A13.41,13.41,0,0,0,162,105a34.92,34.92,0,0,0-.62-6.43,23.4,23.4,0,0,0-2-6.14,13.73,13.73,0,0,0-3.57-4.61A8.23,8.23,0,0,0,150.34,86a9,9,0,0,0-7.09,3Q140.55,92,140.55,98.68Z" transform="translate(-5.84 -4.94)"/><path class="cls-1" d="M198.07,93.12a1.2,1.2,0,0,1-1.33-.91,7,7,0,0,0-2.7-4.86,9.16,9.16,0,0,0-5.27-1.45,7,7,0,0,0-4.27,1.37,4.41,4.41,0,0,0-1.87,3.78,4.57,4.57,0,0,0,1.7,3.61,18.81,18.81,0,0,0,6.19,2.86A40,40,0,0,1,195,99.18a13.7,13.7,0,0,1,3.48,2.2,9.06,9.06,0,0,1,2.28,3.15,10.81,10.81,0,0,1,.83,4.45,11.32,11.32,0,0,1-.78,4.15,9.45,9.45,0,0,1-2.41,3.48,12.2,12.2,0,0,1-4.07,2.41,16.72,16.72,0,0,1-5.85.91,32.42,32.42,0,0,1-5.93-.62,19.41,19.41,0,0,1-5.94-2.12c-.11-1.44-.21-2.94-.29-4.52s-.12-3.17-.12-4.77H177a3.06,3.06,0,0,1,1.41.29,1.16,1.16,0,0,1,.66,1,8.23,8.23,0,0,0,2.7,5.6,9.52,9.52,0,0,0,6.6,2.12,7.94,7.94,0,0,0,5.23-1.53,5.22,5.22,0,0,0,1.82-4.2,4.87,4.87,0,0,0-2-4.19,19.66,19.66,0,0,0-5.89-2.61,21.06,21.06,0,0,1-7.68-3.9q-2.78-2.42-2.78-7.06A10.11,10.11,0,0,1,180.22,86a11.18,11.18,0,0,1,3.66-2.24,13.33,13.33,0,0,1,4.81-.83,22.09,22.09,0,0,1,6.27.87,21.14,21.14,0,0,1,4.6,1.87c.06.45.11,1,.17,1.62s.1,1.3.12,2l.09,2.08c0,.69,0,1.31,0,1.86Z" transform="translate(-5.84 -4.94)"/><path class="cls-1" d="M220.4,114.12a2,2,0,0,0,1.32,1.87,16.05,16.05,0,0,0,3.24,1,.9.9,0,0,1,.75,1,7.27,7.27,0,0,1-.17,1.33c-1.44-.11-2.84-.21-4.2-.29s-2.82-.12-4.39-.12-3.17,0-4.64.12-2.9.18-4.28.29a7.27,7.27,0,0,1-.17-1.33.88.88,0,0,1,.67-1,18.14,18.14,0,0,0,3.32-1,2.07,2.07,0,0,0,1.57-1.95V69.47c0-1.77-.33-3-1-3.61s-2-1-4-1.21a1.08,1.08,0,0,1-1.07-1.16,4.85,4.85,0,0,1,.16-1.16c.72,0,1.71,0,3-.13S213,62,214,61.91a23.67,23.67,0,0,0,3.44-.66,9.28,9.28,0,0,1,2.18-.41,1.22,1.22,0,0,1,1,.33,1.45,1.45,0,0,1,.25.91,24.61,24.61,0,0,1-.25,3.28,34.62,34.62,0,0,0-.24,4.36V99.43l12.46-11a1.34,1.34,0,0,0,.74-1.24.72.72,0,0,0-.62-.75,13.6,13.6,0,0,0-1.37-.29,5,5,0,0,1-1.37-.42,1,1,0,0,1-.62-1,4.1,4.1,0,0,1,.17-1q.5,0,2.73.12c1.5.09,3.07.13,4.73.13s3.16,0,4.49-.13,2.18-.12,2.57-.12a1.29,1.29,0,0,0,.12.37,1.51,1.51,0,0,1,.13.63,1.59,1.59,0,0,1-.29.91,1,1,0,0,1-.87.41,12,12,0,0,0-3.12.63,6.21,6.21,0,0,0-1.7.87L227,97.94l13.45,15.6a7.66,7.66,0,0,0,3.24,2.53,14.39,14.39,0,0,0,3,.71c.56,0,.83.33.83,1a4.33,4.33,0,0,1-.08.75,7.45,7.45,0,0,1-.17.83q-5.64-.25-11.62-.25l-15.1-18.26h-.08Z" transform="translate(-5.84 -4.94)"/><path class="cls-1" d="M278.09,111.22a1.73,1.73,0,0,1,1.24-.58c.55,0,1.08.47,1.57,1.41a24.44,24.44,0,0,1-2.49,2.9,15.73,15.73,0,0,1-3.36,2.53,18.16,18.16,0,0,1-4.44,1.79,22.45,22.45,0,0,1-5.73.66,18.37,18.37,0,0,1-6.3-1.08,14.29,14.29,0,0,1-5.27-3.32,16.37,16.37,0,0,1-3.66-5.56,20.4,20.4,0,0,1-1.37-7.8,18.65,18.65,0,0,1,1.62-7.8,20.22,20.22,0,0,1,4.19-6.1,19.82,19.82,0,0,1,5.69-4,14.53,14.53,0,0,1,6-1.41q7.71,0,11.24,4.49t3.53,11.7a.44.44,0,0,1-.5.5l-24,1.08a19,19,0,0,0,.9,6,14.55,14.55,0,0,0,2.57,4.73,11.52,11.52,0,0,0,4,3.11,12.24,12.24,0,0,0,5.34,1.13,11.1,11.1,0,0,0,5.09-1.25A13.46,13.46,0,0,0,278.09,111.22ZM264.67,85.9a7.47,7.47,0,0,0-6.44,3.24,14.25,14.25,0,0,0-2.31,8.46l15.61-.74c.83,0,1.24-.36,1.24-1.08a12.17,12.17,0,0,0-.5-3.32,11,11,0,0,0-1.48-3.2,8.49,8.49,0,0,0-2.52-2.4A6.63,6.63,0,0,0,264.67,85.9Z" transform="translate(-5.84 -4.94)"/><path class="cls-1" d="M304.72,109.89c.83-2.1,1.75-4.28,2.74-6.52S309.39,99,310.24,97s1.57-3.79,2.12-5.39a12.55,12.55,0,0,0,.83-3.57,1.21,1.21,0,0,0-.66-1.12,9.78,9.78,0,0,0-1.46-.66c-.52-.2-1-.39-1.45-.59a1,1,0,0,1-.66-1,2,2,0,0,1,.08-.5,5.13,5.13,0,0,1,.17-.58q3.23.25,6.89.25c1.27,0,2.37,0,3.31,0a26.6,26.6,0,0,0,2.66-.21,1.39,1.39,0,0,1,.21.58,3.86,3.86,0,0,1,0,.5c0,.61-.36,1-1.08,1.16a14.87,14.87,0,0,0-1.95.5,3.49,3.49,0,0,0-1.16.66,4.28,4.28,0,0,0-.83,1.08,17,17,0,0,0-.87,1.91l-17,40.17a14.17,14.17,0,0,1-5,6.31,12.2,12.2,0,0,1-7.14,2.33,1.12,1.12,0,0,1-1-.38,1.4,1.4,0,0,1-.29-.87,8.15,8.15,0,0,1,.25-2,9.14,9.14,0,0,1,.66-1.91,5.12,5.12,0,0,1,1-1.41,1.58,1.58,0,0,1,1.12-.54,5.54,5.54,0,0,1,1.2.12,5,5,0,0,0,1.2.13,5.23,5.23,0,0,0,3.32-.87,7.17,7.17,0,0,0,1.91-2.78l4.24-9.88L288.12,90.05c-.38-.77-.72-1.39-1-1.87a5.26,5.26,0,0,0-.91-1.16,3.15,3.15,0,0,0-1.17-.66,13.18,13.18,0,0,0-1.74-.38,1.2,1.2,0,0,1-1.08-1.24,3.86,3.86,0,0,1,0-.5,1.39,1.39,0,0,1,.21-.58q1.66.16,3.36.21c1.14,0,2.42,0,3.86,0h2.41c1.33,0,2.57,0,3.73,0s2.33-.1,3.49-.21a1.39,1.39,0,0,1,.21.58c0,.22,0,.39,0,.5q0,1-1.08,1.08a9.51,9.51,0,0,0-2.57.7,1.15,1.15,0,0,0-.67,1,10.9,10.9,0,0,0,.5,2.08,31.35,31.35,0,0,0,1.66,4.15Z" transform="translate(-5.84 -4.94)"/><path class="cls-2" d="M59.22,140.05a7.3,7.3,0,0,1,.37-.66,1.24,1.24,0,0,1,.71-.5,7.79,7.79,0,0,1,1.33-.29,15.35,15.35,0,0,1,2.32-.13c.44,0,1,0,1.74,0l2.33-.08c.83,0,1.67-.07,2.53-.13l2.36-.16a7.17,7.17,0,0,1,.17,1.33c0,.88-.28,1.35-.83,1.41a9.91,9.91,0,0,0-4,1.12,2.17,2.17,0,0,0-1,1.86c0,.06,0,.79.12,2.2s.21,3.77.38,7.06.37,7.68.62,13.16.54,12.28.87,20.41a3,3,0,0,0,1.08,2.33,10.37,10.37,0,0,0,4.07,1.24.91.91,0,0,1,.62.46,1.75,1.75,0,0,1,.21.87,7.37,7.37,0,0,1-.17,1.33l-5.27-.29c-1.58-.09-3-.13-4.36-.13-.55,0-1.24,0-2.07,0l-2.62.09c-.91,0-1.81.07-2.69.12s-1.66.11-2.33.17a7.2,7.2,0,0,1-.16-1.33c0-.89.27-1.33.83-1.33a17.4,17.4,0,0,0,4.52-1.33,2.35,2.35,0,0,0,1.2-2.24c0-.16,0-1.19-.12-3.07s-.2-4.18-.33-6.89-.28-5.64-.42-8.8-.28-6.12-.41-8.92-.27-5.2-.38-7.22-.16-3.25-.16-3.69l-18.18,43.9A5.39,5.39,0,0,1,41.5,193a1,1,0,0,1-.79.38,2.23,2.23,0,0,1-.75-.08L19.63,146.69c-.06.55-.13,1.9-.21,4s-.19,4.66-.33,7.59-.29,6-.46,9.3-.32,6.28-.45,9-.25,5.09-.34,7-.12,2.88-.12,3q0,2.58,5.64,3.57c.56.06.83.5.83,1.33a7.2,7.2,0,0,1-.16,1.33c-1.5-.11-3-.21-4.4-.29s-2.71-.13-3.82-.13c-.89,0-2.08,0-3.57.13s-2.9.18-4.23.29a7.37,7.37,0,0,1-.17-1.33c0-.77.28-1.22.83-1.33a11.37,11.37,0,0,0,3.61-1.2,3,3,0,0,0,1.54-2.37c0-.49,0-1.89.16-4.19s.24-5,.38-8.17.29-6.51.45-10.05.32-6.82.46-9.83.25-5.51.33-7.47.13-3,.13-3a2.11,2.11,0,0,0-1-2,12.63,12.63,0,0,0-3.94-1.12c-.56-.06-.83-.53-.83-1.41a7,7,0,0,1,.16-1.33l2.45.16c.91.06,1.83.1,2.74.13l2.61.08c.83,0,1.5,0,2,0a15.44,15.44,0,0,1,2.32.13,8,8,0,0,1,1.33.29,1.19,1.19,0,0,1,.7.5,7.44,7.44,0,0,1,.38.66l17.76,41.42Z" transform="translate(-5.84 -4.94)"/><path class="cls-2" d="M93,192.42c-.95,0-1.92,0-2.9,0s-1.87.07-2.7.13-1.55.11-2.16.16-1,.09-1.16.09a5.62,5.62,0,0,0-.09-.58,5.81,5.81,0,0,1-.08-.75.91.91,0,0,1,.75-1,16.29,16.29,0,0,0,3.48-1,2,2,0,0,0,1.33-1.91V165a5.74,5.74,0,0,0-.87-3.57q-.87-1.08-3.78-1.32A1.1,1.1,0,0,1,83.7,159a4.87,4.87,0,0,1,.17-1.08q1.08,0,3-.12c1.3-.08,2.37-.18,3.2-.29,1.29-.22,2.44-.46,3.44-.71a11,11,0,0,1,2.19-.37c.78,0,1.17.42,1.17,1.25a18.23,18.23,0,0,1-.25,2.78,30,30,0,0,0-.25,4.27v22.91a2,2,0,0,0,1.29,1.91,15.47,15.47,0,0,0,3.61,1,.9.9,0,0,1,.66,1c0,.17,0,.41,0,.75a1.42,1.42,0,0,1-.12.58c-.17,0-.54,0-1.12-.09s-1.29-.11-2.12-.16-1.73-.1-2.71-.13S93.91,192.42,93,192.42ZM88.1,142.54a4.84,4.84,0,0,1,1.37-3.44,4.53,4.53,0,0,1,3.45-1.46,4.33,4.33,0,0,1,3.32,1.46,4.92,4.92,0,0,1,1.32,3.44A4.74,4.74,0,0,1,96.24,146a4.54,4.54,0,0,1-3.32,1.32A4.76,4.76,0,0,1,89.47,146,4.66,4.66,0,0,1,88.1,142.54Z" transform="translate(-5.84 -4.94)"/><path class="cls-2" d="M125.37,159.55A7.5,7.5,0,0,0,119,163q-2.44,3.4-2.45,9.21,0,8.06,3.61,12.53a11.7,11.7,0,0,0,9.59,4.49,10.57,10.57,0,0,0,4.44-.83,30.12,30.12,0,0,0,3.11-1.66l.58-.38a1.21,1.21,0,0,1,.67-.2,1.33,1.33,0,0,1,.91.58,4.87,4.87,0,0,1,.66.91,14.16,14.16,0,0,1-2.07,2,17.08,17.08,0,0,1-3,1.87,18.28,18.28,0,0,1-4.11,1.41,24.14,24.14,0,0,1-5.35.54,18.5,18.5,0,0,1-6.43-1.12,14.86,14.86,0,0,1-5.32-3.36,16,16,0,0,1-3.61-5.61,21.35,21.35,0,0,1-1.33-7.84,18.37,18.37,0,0,1,1.62-7.76,20.28,20.28,0,0,1,4.15-6,19.45,19.45,0,0,1,5.65-3.9,14.7,14.7,0,0,1,6.1-1.41,21.74,21.74,0,0,1,5.56.66,15.88,15.88,0,0,1,4.23,1.75,8.57,8.57,0,0,1,2.7,2.53,5.41,5.41,0,0,1,.95,3c0,.33-.27.61-.83.83a10.79,10.79,0,0,1-1.86.54,19.29,19.29,0,0,1-2,.29l-1.12.08a1.9,1.9,0,0,1-1.7-1c-.41-.69-.87-1.43-1.37-2.24a8.8,8.8,0,0,0-2-2.24A5.62,5.62,0,0,0,125.37,159.55Z" transform="translate(-5.84 -4.94)"/><path class="cls-2" d="M159.65,164.62a14.91,14.91,0,0,0,1.41-1.5,23.78,23.78,0,0,1,3-2.82,24.73,24.73,0,0,1,4.27-2.7,11.77,11.77,0,0,1,5.31-1.2,12.71,12.71,0,0,1,3.82.58,8.1,8.1,0,0,1,3.2,1.91,9.85,9.85,0,0,1,2.2,3.4,14,14,0,0,1,.83,5.15v20.25a2,2,0,0,0,1.49,1.87,16.19,16.19,0,0,0,3.41.95.9.9,0,0,1,.66,1,7.37,7.37,0,0,1-.17,1.33c-1.44-.11-2.83-.21-4.19-.29s-2.88-.13-4.56-.13c-1.46,0-2.92,0-4.4.13s-2.92.18-4.36.29a7.37,7.37,0,0,1-.17-1.33.91.91,0,0,1,.75-1,7.46,7.46,0,0,0,1.54-.33,9.53,9.53,0,0,0,1.45-.58,4.24,4.24,0,0,0,1.12-.79,1.52,1.52,0,0,0,.46-1.12V171.42a27.9,27.9,0,0,0-.25-3.81,8.85,8.85,0,0,0-.95-3,5.09,5.09,0,0,0-1.9-2,6.16,6.16,0,0,0-3.1-.7,12.28,12.28,0,0,0-4.05.7,10.54,10.54,0,0,0-3.51,2.08,9.88,9.88,0,0,0-2.43,3.36,10.84,10.84,0,0,0-.91,4.57v15.1a2,2,0,0,0,1.41,1.87,14.73,14.73,0,0,0,3.15.95.91.91,0,0,1,.75,1,7.37,7.37,0,0,1-.17,1.33c-1.44-.11-2.85-.21-4.24-.29s-2.86-.13-4.43-.13-3.16,0-4.6.13-2.86.18-4.24.29a7.2,7.2,0,0,1-.16-1.33c0-.55.21-.89.66-1a16.09,16.09,0,0,0,3.4-.95,2.07,2.07,0,0,0,1.5-1.95V143c0-1.77-.34-3-1-3.56s-2-1-4-1.25a1.1,1.1,0,0,1-1.08-1.16,4.85,4.85,0,0,1,.16-1.16c.72,0,1.72,0,3-.13s2.43-.18,3.49-.29a24.21,24.21,0,0,0,3.44-.66,9.41,9.41,0,0,1,2.19-.42,1.18,1.18,0,0,1,1,.34,1.45,1.45,0,0,1,.26.91,26.41,26.41,0,0,1-.25,3.28,32.53,32.53,0,0,0-.25,4.35Z" transform="translate(-5.84 -4.94)"/><path class="cls-2" d="M205.25,192.42c-.95,0-1.91,0-2.89,0s-1.88.07-2.71.13-1.55.11-2.16.16-1,.09-1.16.09c0-.06,0-.25-.08-.58a4.42,4.42,0,0,1-.08-.75.91.91,0,0,1,.74-1,16.4,16.4,0,0,0,3.49-1,2,2,0,0,0,1.33-1.91V165a5.74,5.74,0,0,0-.87-3.57q-.87-1.08-3.78-1.32A1.1,1.1,0,0,1,196,159a4.87,4.87,0,0,1,.17-1.08c.71,0,1.73,0,3-.12s2.36-.18,3.2-.29c1.29-.22,2.43-.46,3.44-.71a11,11,0,0,1,2.18-.37c.79,0,1.18.42,1.18,1.25a19.61,19.61,0,0,1-.25,2.78,28.57,28.57,0,0,0-.25,4.27v22.91a2,2,0,0,0,1.29,1.91,15.33,15.33,0,0,0,3.61,1,.9.9,0,0,1,.66,1c0,.17,0,.41,0,.75a1.21,1.21,0,0,1-.13.58c-.16,0-.53,0-1.12-.09s-1.28-.11-2.11-.16-1.74-.1-2.71-.13S206.21,192.42,205.25,192.42Zm-4.85-49.88a4.84,4.84,0,0,1,1.37-3.44,4.53,4.53,0,0,1,3.44-1.46,4.3,4.3,0,0,1,3.32,1.46,4.89,4.89,0,0,1,1.33,3.44,4.71,4.71,0,0,1-1.33,3.49,4.51,4.51,0,0,1-3.32,1.32,4.75,4.75,0,0,1-3.44-1.32A4.66,4.66,0,0,1,200.4,142.54Z" transform="translate(-5.84 -4.94)"/><path class="cls-2" d="M226,190.68a6.54,6.54,0,0,1-3.56-6q0-4.14,5.47-6.8a10.45,10.45,0,0,1-3.69-3.78,11.56,11.56,0,0,1-1.37-5.85,9.56,9.56,0,0,1,1.12-4.48,13.05,13.05,0,0,1,3-3.82,14.41,14.41,0,0,1,4.36-2.61,14.06,14.06,0,0,1,5.18-1,18.15,18.15,0,0,1,6.65,1,16.29,16.29,0,0,1,4.31,2.49l8.22-3.57a3.45,3.45,0,0,1,1.33,1.53,4.61,4.61,0,0,1,.41,1.79c0,1.22-.41,1.82-1.24,1.82l-3-.08a18.21,18.21,0,0,0-3.82.5,10.66,10.66,0,0,1,.83,11,11.61,11.61,0,0,1-3.15,3.69,15.17,15.17,0,0,1-4.73,2.41,19.15,19.15,0,0,1-5.82.87,25,25,0,0,1-3.31-.21,14.84,14.84,0,0,1-3-.7,8.47,8.47,0,0,0-3,2,3,3,0,0,0-.83,1.91,2.31,2.31,0,0,0,.41,1.28,3.22,3.22,0,0,0,1.54,1.08,13.49,13.49,0,0,0,3.15.75,38.61,38.61,0,0,0,5.19.29,41.78,41.78,0,0,1,7.06.58,20.21,20.21,0,0,1,5.85,1.91,10.75,10.75,0,0,1,4,3.49,9.13,9.13,0,0,1,1.45,5.23,13.48,13.48,0,0,1-1.37,6.14,13.89,13.89,0,0,1-3.81,4.69,17.63,17.63,0,0,1-5.9,3,26,26,0,0,1-7.51,1q-7.8,0-12.2-2.82t-4.4-9.05a9.64,9.64,0,0,1,.58-3.36,12.43,12.43,0,0,1,1.46-2.78,10.54,10.54,0,0,1,2-2.16A17.71,17.71,0,0,1,226,190.68Zm2,1a7.29,7.29,0,0,0-2.25,4.81,11.73,11.73,0,0,0-.08,1.33v1.41a9.26,9.26,0,0,0,3.32,6.56,12.54,12.54,0,0,0,3.9,2.15,15.88,15.88,0,0,0,5.4.83q5.73,0,8.34-2.53A8.37,8.37,0,0,0,249.2,200a6.41,6.41,0,0,0-.66-2.91,5.68,5.68,0,0,0-2.24-2.28,13.3,13.3,0,0,0-4.15-1.5,31.86,31.86,0,0,0-6.39-.54,35.63,35.63,0,0,1-4.19-.24A16.69,16.69,0,0,1,228,191.68Zm9.37-14.7a6.32,6.32,0,0,0,4.9-2,7.79,7.79,0,0,0,1.83-5.48,17.57,17.57,0,0,0-.38-3.61,9.54,9.54,0,0,0-1.28-3.23A7.22,7.22,0,0,0,240,160.3a7.45,7.45,0,0,0-3.86-.91,5.88,5.88,0,0,0-4.61,1.91,7.58,7.58,0,0,0-1.7,5.23,19.06,19.06,0,0,0,.38,3.77,10.52,10.52,0,0,0,1.24,3.36,7,7,0,0,0,2.32,2.41A6.67,6.67,0,0,0,237.33,177Z" transform="translate(-5.84 -4.94)"/><path class="cls-2" d="M296.35,190.18q.91,0,1,1.74a9.36,9.36,0,0,1-5.47,1.5,8.56,8.56,0,0,1-3.19-.54,6.86,6.86,0,0,1-2.27-1.45,6.52,6.52,0,0,1-1.42-2.08,8.87,8.87,0,0,1-.68-2.4,11.61,11.61,0,0,1-4.94,5.1,15.1,15.1,0,0,1-6.59,1.37,23.41,23.41,0,0,1-3.53-.29,10.79,10.79,0,0,1-3.53-1.21,7.48,7.48,0,0,1-2.74-2.57,7.94,7.94,0,0,1-1.08-4.4,8.93,8.93,0,0,1,1.46-5.18,11.66,11.66,0,0,1,3.73-3.49,22.41,22.41,0,0,1,5-2.2q2.7-.83,5.19-1.41,1.41-.25,2.61-.54a19.75,19.75,0,0,0,2.12-.62,2.19,2.19,0,0,0,1.45-.92,5.76,5.76,0,0,0,.29-2.24,12.56,12.56,0,0,0-1.49-6.43q-1.5-2.53-5.31-2.53a7.67,7.67,0,0,0-2.41.33,4,4,0,0,0-1.66,1,6.1,6.1,0,0,0-1.16,1.87,28.4,28.4,0,0,0-1,2.74,2,2,0,0,1-1.12,1.32,20,20,0,0,1-2.95,1,12.45,12.45,0,0,1-1.24.33,6,6,0,0,1-1.25.17c-.55,0-.83-.58-.83-1.75a6,6,0,0,1,1.41-3.65,14.46,14.46,0,0,1,3.62-3.24,21.4,21.4,0,0,1,4.77-2.28,15.22,15.22,0,0,1,4.89-.87,25.27,25.27,0,0,1,5.24.5,9.63,9.63,0,0,1,4,1.82,8.38,8.38,0,0,1,2.56,3.57,16.11,16.11,0,0,1,.88,5.81v14.28a29.19,29.19,0,0,0,.21,4.19,6.43,6.43,0,0,0,.62,2,3.37,3.37,0,0,0,1.29,1.54,3.06,3.06,0,0,0,1.45.37,3.56,3.56,0,0,0,1.29-.16A1.93,1.93,0,0,1,296.35,190.18ZM283.73,174l-2.67.41c-1.45.28-2.85.61-4.22,1a13.06,13.06,0,0,0-3.63,1.62,8.25,8.25,0,0,0-2.55,2.61,7.37,7.37,0,0,0-1,3.9,6.63,6.63,0,0,0,1.63,4.82,5.48,5.48,0,0,0,4.05,1.66,7.47,7.47,0,0,0,3.13-.71,7.79,7.79,0,0,0,2.67-2,10.45,10.45,0,0,0,1.84-3,10.11,10.11,0,0,0,.71-3.82Z" transform="translate(-5.84 -4.94)"/><path class="cls-2" d="M339.42,187.69a2,2,0,0,0,1.5,1.87,16.19,16.19,0,0,0,3.32.95.91.91,0,0,1,.75,1,7.37,7.37,0,0,1-.17,1.33c-1.44-.11-2.85-.21-4.23-.29s-2.88-.13-4.49-.13-3,0-4.44.13-2.92.18-4.35.29a6.56,6.56,0,0,1-.17-1.33.91.91,0,0,1,.75-1,14.73,14.73,0,0,0,3.15-.95,2,2,0,0,0,1.41-1.87V171.42a26.4,26.4,0,0,0-.25-3.81,8.64,8.64,0,0,0-.95-3,5,5,0,0,0-1.9-2,6.14,6.14,0,0,0-3.09-.7,12.24,12.24,0,0,0-4.05.7,10.54,10.54,0,0,0-3.51,2.08,10,10,0,0,0-2.44,3.36,11,11,0,0,0-.91,4.57v15.1a2,2,0,0,0,1.46,1.87,15.66,15.66,0,0,0,3.11.95.91.91,0,0,1,.75,1,7.37,7.37,0,0,1-.17,1.33c-1.44-.11-2.85-.21-4.24-.29s-2.87-.13-4.43-.13-3.16,0-4.6.13-2.86.18-4.24.29a7.37,7.37,0,0,1-.17-1.33.91.91,0,0,1,.75-1,16.56,16.56,0,0,0,3.32-.95,2.08,2.08,0,0,0,1.49-1.95V165a5.74,5.74,0,0,0-.87-3.57q-.87-1.08-3.78-1.32a1.09,1.09,0,0,1-1.07-1.17,4.75,4.75,0,0,1,.16-1.08q1.08,0,3-.12c1.3-.08,2.37-.18,3.2-.29,1.29-.22,2.44-.46,3.44-.71a11,11,0,0,1,2.19-.37c.78,0,1.17.42,1.17,1.25a18.23,18.23,0,0,1-.25,2.78,30,30,0,0,0-.25,4.27,36,36,0,0,1,6.83-6.14,12.7,12.7,0,0,1,7.15-2.16q5.06,0,7.57,2.95c1.68,2,2.52,4.69,2.52,8.17Z" transform="translate(-5.84 -4.94)"/><path class="cls-3" d="M54.41,252.28c0,.16-.1.43-.18.8s-.13.6-.16.69l-.41-.06-.52-.07a49.92,49.92,0,0,1-8.9-2.13,28.6,28.6,0,0,1-6.58-3.2,14,14,0,0,1-4.79-5.23,10.55,10.55,0,0,1-1-6.35,10.25,10.25,0,0,1,2.76-5.8,14.64,14.64,0,0,1,6-3.64,26.52,26.52,0,0,1,6.94-1.3,41.26,41.26,0,0,1,8.4.37l.77.11.61.08c0,.28-.05.54-.08.78s0,.49,0,.76L56.6,228l-.49-.07a43.21,43.21,0,0,0-8.2-.4,25.62,25.62,0,0,0-6.71,1.19,12.41,12.41,0,0,0-5.2,3.14A8.94,8.94,0,0,0,33.59,237a9.4,9.4,0,0,0,.84,5.6,12.13,12.13,0,0,0,4.16,4.56,26.64,26.64,0,0,0,6.19,3,49.61,49.61,0,0,0,8.44,2l.62.08Z" transform="translate(-5.84 -4.94)"/><path class="cls-3" d="M88.23,246.77a9.83,9.83,0,0,1-4.4,7.36,11.8,11.8,0,0,1-3.91,1.65,15.13,15.13,0,0,1-4.85.26,14.87,14.87,0,0,1-4.72-1.2,12.35,12.35,0,0,1-3.55-2.36,9.87,9.87,0,0,1-2.37-3.68,9.67,9.67,0,0,1-.54-4.39A10.06,10.06,0,0,1,65.34,240a10,10,0,0,1,3.19-3.17,12.14,12.14,0,0,1,3.87-1.53,15.55,15.55,0,0,1,4.71-.22,15.89,15.89,0,0,1,4.69,1.15,11.54,11.54,0,0,1,3.58,2.3,9.53,9.53,0,0,1,2.33,3.62A10.17,10.17,0,0,1,88.23,246.77Zm-1.71-.16a8.92,8.92,0,0,0-.45-4,8.07,8.07,0,0,0-2-3.06,10.6,10.6,0,0,0-3.15-2.08,12.55,12.55,0,0,0-3.87-1,13.74,13.74,0,0,0-4.19.2,10.13,10.13,0,0,0-3.43,1.41,8.53,8.53,0,0,0-2.59,2.69,8.75,8.75,0,0,0-1.22,3.77,8.41,8.41,0,0,0,.51,4,8.87,8.87,0,0,0,2,3.09,10.08,10.08,0,0,0,3.11,2,14,14,0,0,0,8,.77A9.88,9.88,0,0,0,82.73,253a8.58,8.58,0,0,0,2.58-2.68A8.7,8.7,0,0,0,86.52,246.61Z" transform="translate(-5.84 -4.94)"/><path class="cls-3" d="M134.11,259.69l-1.62-.09c0-.45.07-1.5.17-3.13s.19-3.23.28-4.81.14-2.63.19-3.56.09-1.63.11-2.07a6.42,6.42,0,0,0-1-4.18q-1.16-1.6-4.52-1.79a16.75,16.75,0,0,0-4.69.48,23.31,23.31,0,0,0-5.42,2c0,.14,0,.45,0,.94s0,.82,0,1c-.07,1.35-.13,2.44-.18,3.29s-.13,2.11-.22,3.8c0,.94-.11,2.14-.19,3.62s-.14,2.66-.19,3.54l-1.62-.09c0-.59.1-1.78.2-3.56s.18-3.12.23-4c.1-1.91.17-3.28.22-4.13s.08-1.48.1-1.91a7.55,7.55,0,0,0-.33-2.9,3.82,3.82,0,0,0-1.34-1.88,5,5,0,0,0-1.64-.8,9.94,9.94,0,0,0-2.2-.35,15.89,15.89,0,0,0-4.9.63,37.66,37.66,0,0,0-5.12,1.81l-.15,2.85c-.09,1.52-.16,3-.23,4.3-.08,1.49-.17,3.17-.26,5s-.17,3.22-.21,4.09l-1.66-.09c0-.59.11-2.06.25-4.43s.25-4.5.35-6.42.18-3.49.26-5,.14-2.95.22-4.35l1.66.09-.16,2.28.09.06a31.11,31.11,0,0,1,5.59-1.82,18.85,18.85,0,0,1,4.7-.42,8.65,8.65,0,0,1,3.94,1,5.18,5.18,0,0,1,2.19,2.38h.1a23.8,23.8,0,0,1,5.19-2,19.56,19.56,0,0,1,5.85-.52,7.33,7.33,0,0,1,5.24,2,6.59,6.59,0,0,1,1.5,5c-.09,1.76-.17,3.16-.23,4.18s-.11,1.81-.14,2.36-.1,1.89-.2,3.66S134.15,258.94,134.11,259.69Z" transform="translate(-5.84 -4.94)"/><path class="cls-3" d="M183,260.29h-1.62c0-.45,0-1.5,0-3.13s0-3.24.05-4.81,0-2.64,0-3.58,0-1.63,0-2.07a6.39,6.39,0,0,0-1.21-4.12q-1.23-1.56-4.59-1.58a17.31,17.31,0,0,0-4.67.69,23.59,23.59,0,0,0-5.32,2.3c0,.13,0,.44.07.93s0,.82,0,1q0,2,0,3.3c0,.84,0,2.12,0,3.81,0,.93,0,2.14,0,3.62s0,2.67,0,3.55H164.1c0-.6,0-1.8,0-3.58s0-3.12,0-4c0-1.91,0-3.29,0-4.14s0-1.48,0-1.91a7.76,7.76,0,0,0-.46-2.88,4,4,0,0,0-1.43-1.82,5,5,0,0,0-1.68-.72,9.29,9.29,0,0,0-2.21-.24,15.23,15.23,0,0,0-4.87.86,39.7,39.7,0,0,0-5,2c0,.39,0,1.34,0,2.87s0,3,0,4.3c0,1.5,0,3.17,0,5s0,3.22,0,4.09h-1.66c0-.59,0-2.07,0-4.44s0-4.51,0-6.43,0-3.5,0-5,0-3,0-4.35h1.66l-.06,2.28.1.06a30.86,30.86,0,0,1,5.49-2.07,18.16,18.16,0,0,1,4.69-.64,8.68,8.68,0,0,1,4,.83,5.23,5.23,0,0,1,2.29,2.27h.1a23.73,23.73,0,0,1,5.09-2.2,19.53,19.53,0,0,1,5.83-.79,7.37,7.37,0,0,1,5.33,1.75,6.62,6.62,0,0,1,1.73,5c0,1.76,0,3.16,0,4.19s0,1.81,0,2.36,0,1.89,0,3.66S183.05,259.55,183,260.29Z" transform="translate(-5.84 -4.94)"/><path class="cls-3" d="M215.61,259.38l-1.65.05-.06-2.68h0a42,42,0,0,1-5.31,2.25,20.31,20.31,0,0,1-6.16,1.19,7.45,7.45,0,0,1-5.15-1.57,6.48,6.48,0,0,1-2.12-5.11c0-1.06-.07-2.1-.1-3.14s-.06-2.07-.1-3.08-.07-2.41-.13-4.24-.09-2.91-.1-3.26l1.62,0c0,.32,0,1.31.08,3s.09,3.05.12,4.2.09,2.53.14,3.71.08,2,.1,2.52a5.44,5.44,0,0,0,1.69,4.29q1.6,1.32,5.07,1.21a17,17,0,0,0,4.66-1,35.29,35.29,0,0,0,5.66-2.51q-.15-4.94-.2-6.55c-.06-1.82-.12-3.71-.19-5.65s-.12-3.17-.14-3.69l1.66-.05c0,.4.05,1.48.09,3.25s.11,3.8.18,6.09q.12,4,.2,6.2C215.5,256.17,215.55,257.72,215.61,259.38Z" transform="translate(-5.84 -4.94)"/><path class="cls-3" d="M248.22,257.53l-1.66.11c0-.4-.09-1.42-.18-3s-.18-3-.26-4.16-.16-2.46-.23-3.51-.12-1.83-.16-2.34a6.53,6.53,0,0,0-1.69-4.53c-1-.92-2.67-1.31-5-1.17a17.09,17.09,0,0,0-4.91,1.22,45.63,45.63,0,0,0-5.51,2.55c0,.37.08,1.31.18,2.81s.18,2.78.24,3.86q.18,2.74.39,5.83c.14,2.07.23,3.25.24,3.54l-1.65.1c0-.29-.09-1.35-.19-3.18s-.24-3.9-.38-6.19c-.17-2.66-.32-4.87-.43-6.62s-.21-3.15-.28-4.18l1.62-.11.15,2.62h0c1.16-.63,2.79-1.39,4.88-2.26a19.14,19.14,0,0,1,6.27-1.51,7.79,7.79,0,0,1,5.48,1.34,5.91,5.91,0,0,1,2.15,4.52c.07,1.05.14,2.19.21,3.41s.14,2.35.2,3.36.16,2.42.28,4.28S248.2,257.21,248.22,257.53Z" transform="translate(-5.84 -4.94)"/><path class="cls-3" d="M260.07,230.94l-2,.18-.18-2.09,2-.18Zm2,25.41-1.69.15q-.09-.9-.3-3.51c-.15-1.74-.35-4-.6-6.88-.13-1.4-.26-2.93-.42-4.6s-.31-3.38-.46-5.15l1.69-.15c.21,2.24.37,3.94.46,5.09s.24,2.79.43,4.92c.1,1.2.26,3,.47,5.42S262,255.63,262.05,256.35Z" transform="translate(-5.84 -4.94)"/><path class="cls-3" d="M286.71,252.47l-.1,1.44-.67.09-1.14.13q-4.76.52-7.15-.91t-2.78-5q-.31-2.88-.68-6.69c-.25-2.54-.42-4.27-.52-5.2l-4.6.5-.15-1.39,4.6-.5-.51-4.66,1.59-.18.51,4.66,9.67-1.06.15,1.4-9.67,1c.07.6.16,1.46.28,2.58s.24,2.14.34,3c.16,1.52.3,2.76.41,3.74s.18,1.65.22,2q.35,3.21,2.37,4.42c1.35.8,3.41,1.06,6.17.76l1-.12Z" transform="translate(-5.84 -4.94)"/><path class="cls-3" d="M313.33,230.51q-2.07,5.19-6.55,16.91t-5.19,13.46l-1.42-.73,3.38-8.6q-.56-.7-6.18-8.1l-7.43-9.75,1.37-.91q1.74,2.24,7.26,9.53t5.7,7.51q.06-.27,3.16-8.43t4.38-11.58Z" transform="translate(-5.84 -4.94)"/><path class="cls-3" d="M105.85,28.77a6.41,6.41,0,0,1-1,4,7.65,7.65,0,0,1-3.62,2.9A23.15,23.15,0,0,1,96.93,37a51.38,51.38,0,0,1-6.15.85l-4.21.3c-2,.13-3.25.22-3.62.25-.08-1-.23-2.77-.44-5.44s-.43-5.3-.66-7.89-.47-5.45-.73-8.53-.4-4.69-.41-4.81l3.64-.41,4-.41a37.71,37.71,0,0,1,5.43-.11,15.14,15.14,0,0,1,3.94.73,6.11,6.11,0,0,1,2.81,1.84,5.25,5.25,0,0,1,1.11,2.89,5.31,5.31,0,0,1-1,3.73A9.24,9.24,0,0,1,96.3,22.7v0a12.14,12.14,0,0,1,3.76.26,9.37,9.37,0,0,1,3,1.18A6.61,6.61,0,0,1,105,26.07,5.62,5.62,0,0,1,105.85,28.77Zm-1.73.18a4.83,4.83,0,0,0-.63-2.05A4.71,4.71,0,0,0,102,25.33a8.9,8.9,0,0,0-3.49-1.23,20.52,20.52,0,0,0-5-.11c-.5,0-1,.08-1.36.13l-.84.08L91,22.84A21.75,21.75,0,0,0,94.85,22a11.48,11.48,0,0,0,2.83-1.29,5.58,5.58,0,0,0,1.81-1.81,3.77,3.77,0,0,0,.5-2.28,3.87,3.87,0,0,0-.86-2.19A5.23,5.23,0,0,0,97,13a13.54,13.54,0,0,0-3.62-.71,33,33,0,0,0-5.11.08c-.73.06-1.77.17-3.12.32l-2.65.3c.08,1.07.25,3,.48,5.88s.39,4.85.49,6c.16,2,.38,4.44.63,7.43s.39,4.53.4,4.65c.54,0,1.44,0,2.7-.14l2.6-.2a58.17,58.17,0,0,0,6.54-.86,19.79,19.79,0,0,0,4.36-1.32,5.85,5.85,0,0,0,2.8-2.28A5.42,5.42,0,0,0,104.12,29Z" transform="translate(-5.84 -4.94)"/><path class="cls-3" d="M135.9,34.9l-1.64.07-.11-2.68h0a39.25,39.25,0,0,1-5.27,2.35,20.3,20.3,0,0,1-6.14,1.29,7.47,7.47,0,0,1-5.18-1.47,6.53,6.53,0,0,1-2.21-5.08l-.15-3.14c-.05-1-.1-2.06-.15-3.07s-.11-2.42-.2-4.24-.14-2.91-.16-3.26l1.62-.07c0,.32.06,1.3.14,3s.13,3.05.19,4.2.13,2.53.2,3.7.11,2,.14,2.53a5.44,5.44,0,0,0,1.77,4.26c1.08.85,2.77,1.23,5.08,1.12a17.1,17.1,0,0,0,4.65-1.1,34.32,34.32,0,0,0,5.61-2.61c-.15-3.28-.26-5.45-.31-6.53-.09-1.83-.19-3.71-.29-5.65s-.18-3.17-.2-3.69l1.66-.08c0,.4.07,1.48.15,3.25s.17,3.79.28,6.09c.13,2.66.23,4.73.31,6.19S135.82,33.24,135.9,34.9Z" transform="translate(-5.84 -4.94)"/><path class="cls-3" d="M148.78,9.05l-2,0L146.7,7l2-.06Zm.39,25.48-1.7,0c0-.6,0-1.77-.08-3.52s-.09-4.05-.17-6.9c0-1.41-.08-2.94-.13-4.62s-.09-3.4-.14-5.17l1.7,0c.07,2.25.12,4,.14,5.11s.06,2.8.12,4.93c0,1.2.08,3,.14,5.45Z" transform="translate(-5.84 -4.94)"/><path class="cls-3" d="M162.55,34.32l-1.66,0c0-.58,0-2.94-.08-7.06s-.08-7-.1-8.75-.05-3.8-.1-6.69-.07-5.17-.1-6.88l1.66,0q0,3.18.09,7.27t.07,6.34c0,1.59.06,4.47.12,8.66S162.54,33.76,162.55,34.32Z" transform="translate(-5.84 -4.94)"/><path class="cls-3" d="M193.47,34.6h-2.2a41,41,0,0,1-9.37-1,18,18,0,0,1-6.55-2.81,7.69,7.69,0,0,1-2.29-2.65,7.22,7.22,0,0,1-.77-3.36,8,8,0,0,1,.89-3.69,9,9,0,0,1,2.5-2.93,17.44,17.44,0,0,1,6.71-3,40.66,40.66,0,0,1,9.64-1l0-9.2h1.66c0,.24,0,2.16-.07,5.76s-.08,7.11-.1,10.51c0,2.7,0,5.08,0,7.13S193.49,32.5,193.47,34.6Zm-1.49-14c0-.72,0-1.57,0-2.56s0-1.82,0-2.48a38.69,38.69,0,0,0-9.29.9,14.75,14.75,0,0,0-6.09,2.8,7.38,7.38,0,0,0-1.95,2.4,6.84,6.84,0,0,0-.68,3,5.62,5.62,0,0,0,.7,2.77,7.2,7.2,0,0,0,2.08,2.32,15.85,15.85,0,0,0,5.74,2.45,37.65,37.65,0,0,0,8.41.91h.92c0-.09,0-1.29,0-3.6S192,24.25,192,20.65Z" transform="translate(-5.84 -4.94)"/><path class="cls-3" d="M206.7,34.67l-1.7-.05c0-.6.06-1.77.11-3.52s.13-4.05.22-6.9c0-1.4.08-2.94.12-4.61s.09-3.4.14-5.18l1.7.05c0,2.26-.1,4-.14,5.12s-.09,2.79-.15,4.93c0,1.2-.09,3-.16,5.44S206.72,34,206.7,34.67Zm1-25.46-2-.06.07-2.1,2,.06Z" transform="translate(-5.84 -4.94)"/><path class="cls-3" d="M238.49,36.08,236.83,36c0-.4.07-1.42.16-3s.17-3,.23-4.16.12-2.46.17-3.52.09-1.83.11-2.34a6.5,6.5,0,0,0-1.17-4.69c-.88-1-2.5-1.61-4.83-1.73a16.73,16.73,0,0,0-5,.64,43.18,43.18,0,0,0-5.76,1.91l-.15,2.8c-.08,1.5-.15,2.79-.2,3.87q-.15,2.75-.28,5.84c-.1,2.07-.15,3.25-.17,3.54L218.27,35c0-.3.08-1.36.18-3.19s.21-3.9.33-6.19q.21-4,.33-6.63c.09-1.75.16-3.15.21-4.19l1.62.09-.16,2.61h0c1.23-.5,2.94-1.06,5.11-1.69a19.33,19.33,0,0,1,6.41-.78,7.76,7.76,0,0,1,5.28,2,6,6,0,0,1,1.63,4.74c-.06,1.05-.12,2.19-.19,3.42s-.13,2.34-.18,3.36-.13,2.42-.22,4.27S238.5,35.76,238.49,36.08Z" transform="translate(-5.84 -4.94)"/><path class="cls-3" d="M270.74,18.23c0,.3-.13,1.55-.33,3.77s-.4,4.54-.61,7c-.09,1.08-.19,2.25-.28,3.5s-.23,2.9-.41,4.92a8.59,8.59,0,0,1-2.21,5.31,10.92,10.92,0,0,1-5.63,2.94,27.43,27.43,0,0,1-4.84.6,49.91,49.91,0,0,1-6.09-.18l-.2-1.42a47.39,47.39,0,0,0,5.73.17,24.63,24.63,0,0,0,4.7-.58A10.43,10.43,0,0,0,265.25,42a5.76,5.76,0,0,0,1.94-4l-.63,0-.65-.06a37.43,37.43,0,0,1-7.24-1.26,18.67,18.67,0,0,1-5.36-2.38,11,11,0,0,1-3.55-3.63,7.44,7.44,0,0,1-1-4.41,7,7,0,0,1,1.68-4.07,10.09,10.09,0,0,1,4.13-2.73,25.42,25.42,0,0,1,6-1.39,35,35,0,0,1,7.19-.08l1.67.14Zm-2.65,10.46c.13-1.41.28-3.16.46-5.25s.29-3.41.34-4l-.73-.06-.93-.08a30.85,30.85,0,0,0-6.39.08,22.48,22.48,0,0,0-5.42,1.27A8.73,8.73,0,0,0,251.91,23a5.77,5.77,0,0,0-1.44,3.42,6.37,6.37,0,0,0,.79,3.73,8.84,8.84,0,0,0,3,3.05,18.25,18.25,0,0,0,5,2.15,38.44,38.44,0,0,0,6.87,1.15l.6.05.59,0c0-.21.11-1.23.27-3S268,30.13,268.09,28.69Z" transform="translate(-5.84 -4.94)"/><path class="cls-4" d="M5.67,222.39" transform="translate(-5.84 -4.94)"/><path class="cls-5" d="M260.94,217.83h0Z" transform="translate(-5.84 -4.94)"/><polygon class="cls-5" points="250.77 212.72 250.85 212.7 250.21 212.74 250.77 212.72"/><path class="cls-5" d="M252.57,217.51a13.59,13.59,0,0,0,2.18.1l.12,0,.33-.08C254.32,217.53,253.18,217.57,252.57,217.51Z" transform="translate(-5.84 -4.94)"/><path class="cls-5" d="M250.41,217c.13.08-.47,0,.5.06l-.09,0Z" transform="translate(-5.84 -4.94)"/><path class="cls-5" d="M250.82,217.05c.43,0-.28-.08,0,0Z" transform="translate(-5.84 -4.94)"/><path class="cls-5" d="M248.85,217l.56,0c-.12-.05-.61-.1-.43-.12C248.4,216.81,248.52,216.87,248.85,217Z" transform="translate(-5.84 -4.94)"/><path class="cls-5" d="M248.32,217.11l.29,0C248.56,217.06,248.48,217.05,248.32,217.11Z" transform="translate(-5.84 -4.94)"/><path class="cls-5" d="M249.23,217.05l-.62,0c.08,0,.09.11.28,0C248.84,217.14,249,217.08,249.23,217.05Z" transform="translate(-5.84 -4.94)"/><path class="cls-5" d="M249.58,217.1c.31.07.72.11.15.16C250.81,217.28,250.65,217.14,249.58,217.1Z" transform="translate(-5.84 -4.94)"/><path class="cls-5" d="M252.36,217.67l.42.06.36,0A7.13,7.13,0,0,0,252.36,217.67Z" transform="translate(-5.84 -4.94)"/><path class="cls-5" d="M245.35,216.63c0,.06.19.17.23.24l.42,0C245.78,216.78,245.38,216.72,245.35,216.63Z" transform="translate(-5.84 -4.94)"/><path class="cls-5" d="M245.58,216.87l-.62.07C245.52,217,245.62,216.93,245.58,216.87Z" transform="translate(-5.84 -4.94)"/><polygon class="cls-5" points="242.38 212.42 243.4 212.29 242.18 212.41 242.38 212.42"/><polygon class="cls-5" points="237.14 211.54 237.49 211.42 236.87 211.6 237.14 211.54"/><path class="cls-5" d="M241.41,216.41c.26-.11-.36-.24-.08-.3a3.77,3.77,0,0,0-1.12.17A3.14,3.14,0,0,1,241.41,216.41Z" transform="translate(-5.84 -4.94)"/><path class="cls-5" d="M239.66,216.4a4.6,4.6,0,0,0,.55-.12A2.57,2.57,0,0,0,239.66,216.4Z" transform="translate(-5.84 -4.94)"/><path class="cls-5" d="M243.91,216.86a.85.85,0,0,0-.49-.2l.24.18Z" transform="translate(-5.84 -4.94)"/><path class="cls-5" d="M243.67,216.85h0l-.53,0Z" transform="translate(-5.84 -4.94)"/><path class="cls-5" d="M244,216.86h-.06S243.94,216.88,244,216.86Z" transform="translate(-5.84 -4.94)"/><path class="cls-5" d="M246.59,217.17c-.36.06-1.12.14-.39.29C246.46,217.36,246,217.27,246.59,217.17Z" transform="translate(-5.84 -4.94)"/><path class="cls-5" d="M244.27,217.09l.66.06s-.13-.11,0-.15Z" transform="translate(-5.84 -4.94)"/><polygon class="cls-5" points="238.11 212.19 238.43 212.15 238.18 212.13 238.11 212.19"/><path class="cls-5" d="M240.79,216.65a3.62,3.62,0,0,1-.95.06,9,9,0,0,0,1.14.11C241,216.76,241.19,216.66,240.79,216.65Z" transform="translate(-5.84 -4.94)"/><path class="cls-5" d="M242.19,216.76h-.07S242.19,216.8,242.19,216.76Z" transform="translate(-5.84 -4.94)"/><polygon class="cls-5" points="230.53 211.64 230.59 211.68 230.6 211.65 230.53 211.64"/><path class="cls-5" d="M241,216.86a1,1,0,0,0,.61-.05c-.21,0-.43,0-.67,0C241,216.85,241,216.86,241,216.86Z" transform="translate(-5.84 -4.94)"/><path class="cls-5" d="M238.69,216.45a3.5,3.5,0,0,0,.49.14C239,216.52,238.74,216.4,238.69,216.45Z" transform="translate(-5.84 -4.94)"/><path class="cls-5" d="M242,216.72h0C242,216.66,242,216.69,242,216.72Z" transform="translate(-5.84 -4.94)"/><path class="cls-5" d="M242,216.72a3,3,0,0,0-.38.09,3.06,3.06,0,0,0,.47,0Z" transform="translate(-5.84 -4.94)"/><path class="cls-5" d="M235.32,218.05c.05-.22.8-.42,1.44-.19.64-.16.22-.83-.33-1.24,0,.09,0,.17-.67.28.23.13,1.44.31.89.49-.86.09-.7-.09-1.12-.21.35.27-1.1.38-.91.79l.75-.14C235.39,217.89,235.11,218,235.32,218.05Z" transform="translate(-5.84 -4.94)"/><path class="cls-5" d="M237.67,216.69l.27,0a3.06,3.06,0,0,1-.93-.31c-.44.08-.54.15-.57.22l1.32.08Z" transform="translate(-5.84 -4.94)"/><path class="cls-5" d="M239.14,216.72c-.21.2-.85.27-.46.52.79,0,.56-.17,1-.24-1.27,0,.36-.11-.56-.26l.69,0a6.45,6.45,0,0,1-.66-.12l0,0h0c.05,0,.07,0,0,0h0a.21.21,0,0,1-.06.08c-.37-.06-.06-.06.06-.08l0,0h0l-1.27.06A8.68,8.68,0,0,0,239.14,216.72Z" transform="translate(-5.84 -4.94)"/><path class="cls-5" d="M245.52,217.79s0,0,0,0S245.37,217.79,245.52,217.79Z" transform="translate(-5.84 -4.94)"/><path class="cls-5" d="M245,217.69a1,1,0,0,1,.47-.07c.26,0,0,.08,0,.13.18,0,.64-.1.07-.19l-.09,0a2.83,2.83,0,0,1-1.08-.31A1.61,1.61,0,0,0,245,217.69Z" transform="translate(-5.84 -4.94)"/><path class="cls-5" d="M242,217.3l-1.06.07.54.18,0-.1C242.09,217.5,242,217.37,242,217.3Z" transform="translate(-5.84 -4.94)"/><polygon class="cls-5" points="230.41 211.52 230.55 211.28 229.94 211.6 230.41 211.52"/><polygon class="cls-5" points="229.03 211.5 229.09 211.28 228.72 211.4 229.03 211.5"/><path class="cls-5" d="M157.23,220.16l-.32.11A1.06,1.06,0,0,0,157.23,220.16Z" transform="translate(-5.84 -4.94)"/><path class="cls-5" d="M159.48,220.2l.05-.19C159.43,220.12,159.39,220.2,159.48,220.2Z" transform="translate(-5.84 -4.94)"/><path class="cls-5" d="M201.08,215.57c-.45-.35-1-.89-.9-.47l.14.4A1.17,1.17,0,0,1,201.08,215.57Z" transform="translate(-5.84 -4.94)"/><path class="cls-5" d="M177.94,217.94l.13.14.3-.42Z" transform="translate(-5.84 -4.94)"/><path class="cls-5" d="M177.62,219.73l-.6-.27A2.14,2.14,0,0,0,177.62,219.73Z" transform="translate(-5.84 -4.94)"/><path class="cls-5" d="M144.92,220.45l-.36.4C145.13,220.86,144.88,220.65,144.92,220.45Z" transform="translate(-5.84 -4.94)"/><path class="cls-5" d="M220.78,216.08a4.14,4.14,0,0,0-1-.23C220.28,216.06,220.66,216.34,220.78,216.08Z" transform="translate(-5.84 -4.94)"/><path class="cls-5" d="M158.11,215.66c-.19.08-.27.17-.26.26C158,215.85,158.15,215.77,158.11,215.66Z" transform="translate(-5.84 -4.94)"/><path class="cls-5" d="M218.68,215.82l.2.09a3.47,3.47,0,0,1,.93-.06A1.22,1.22,0,0,0,218.68,215.82Z" transform="translate(-5.84 -4.94)"/><path class="cls-5" d="M100.3,218.82l-.1,0S100.24,218.82,100.3,218.82Z" transform="translate(-5.84 -4.94)"/><path class="cls-5" d="M87.31,217.64l.53,0Z" transform="translate(-5.84 -4.94)"/><path class="cls-5" d="M229.34,216.11c.29,0,0,0,0,0Z" transform="translate(-5.84 -4.94)"/><path class="cls-5" d="M230.76,217.22a.19.19,0,0,0-.12.13A.3.3,0,0,1,230.76,217.22Z" transform="translate(-5.84 -4.94)"/><path class="cls-5" d="M215.77,217.9h0C215.83,218,215.82,218,215.77,217.9Z" transform="translate(-5.84 -4.94)"/><path class="cls-5" d="M229.78,216.25a3.29,3.29,0,0,0-.37-.1A2.63,2.63,0,0,0,229.78,216.25Z" transform="translate(-5.84 -4.94)"/><path class="cls-5" d="M229.72,216.11l.26,0S230,216.08,229.72,216.11Z" transform="translate(-5.84 -4.94)"/><path class="cls-5" d="M228.93,216.11a3.58,3.58,0,0,1,.48,0c-.06,0-.09,0-.07,0Z" transform="translate(-5.84 -4.94)"/><path class="cls-5" d="M124.21,218.82s0,0-.06,0C123.85,218.92,124,218.9,124.21,218.82Z" transform="translate(-5.84 -4.94)"/><path class="cls-5" d="M193.49,219.77l0,0,0,0Z" transform="translate(-5.84 -4.94)"/><path class="cls-5" d="M192.44,220.09c.44-.52.7-.46,1-.36l-.35-1.19Z" transform="translate(-5.84 -4.94)"/><path class="cls-5" d="M151.83,220.23l.74.38c-.89.61-1.53.38-.84.92.1-1.3,2.86-.09,3-1.4l.49.28c-.14,0-.16.06-.3.05.94.64.7-1,1.91-.75.43.1.72.3.44.45l.94-.32c.27,0,.21.26-.07.23l1.44-.1v0a6.09,6.09,0,0,1,.9-.66c.37.19-.18.14-.09.3l.8-.32c.32.35-.34.69-.89.63.75,1.34.66-.33,2.27.46l-.75.17c.48.76,1.07.49,1.92,1-.2-.25-1.7-1.21-.84-1.54a1.1,1.1,0,0,0,1-.12c0,.48.46.37,1,.34l0,.64c.61-.18.57-.51.93-.79.69.06.83.56,1,1,1.1.11-.76-.79.54-.91a4.12,4.12,0,0,0,2.66-.39c.64.22-.12.39.11.57l.57-.51c.14,0,.1.17.07.25.48-.2,0-.64.8-.81.2-.71,1.54,1,2.47.23.23.18-.11.39,0,.64a7.36,7.36,0,0,0,2.15-1.09l.89.42c-.66-.48.18-1.05.92-1.52-.24-.23-.44-.43-.57-.53l1.17-.34c.15.11,0,.33-.17.59l.22-.15c.42.23.2.6-.1,1l-.42-.39a1.77,1.77,0,0,0-.5,1.19.79.79,0,0,1,.38-.18c-.07.11-.12.2-.09.27s.17-.08.36-.24l.26.71.07-.28,1.53.44c1.1-.72,2.06-1.77,3.8-2.06-.43.52-.09.84-.12,1.45-.47-.64-1.35.28-2.25.16.47.06.37.36.25.46l1.61-.6c0,.5.34.38.76.58-.32-1,1.2-.66,1.86-1,0,.33-.12.67-.92.6.88.73,1.14-1.16,2-.54-.2,0-.3,0-.38.13.45-.3,1.57-.07,1.31.22h-.2c1.3.11,3.95,0,4.14-.83a6,6,0,0,1-.25,1.15L194,217c-.21.7.57,2.35-.5,2.75a1.78,1.78,0,0,0,1.34-.05c-.21-.09-.52-1-.24-1.06.79.77.55.41,1.52,1.06-.31-.15,0-1.23.54-1.2-.08.16,0,1.07-.14,1.18l1.24-1.06c-.31.19-.06.89.22,1.18-.13-.2,1.07,0,1.41-.1l-.53-.24c1.4.15,1.38-1.47,2.77-1.41-.16.21-.41,1.31.3,1.43.32-.54,1.43-2.52,2.66-2.9l.24.3.94-.33a22.19,22.19,0,0,1-3.14,3c.53.23.15.35.93.31.28.28-.42.43-.66.45l1.83.15c-.08-.6,1.4-.63,1.33-1.12l-2,.65c-.08-.6,1.14-1.72,2.44-1.61.33.23-.25,1.05-.22,1.25a2,2,0,0,1,1.35-.27l-.55.33c.72.2,1.18-.79,2-.25.3,0,.9.72,1,.38a4.3,4.3,0,0,1-.26-3.16,11.91,11.91,0,0,1,1.91,1c.49.5-.74,1.2-.32,1.63,0-.15.29-.34.41-.4.31.12-.13.47.55.39.11-.56,1.39,0,.32-.48.67-.17.71.11,1.49.07-.25-.35.71-1.22,1.38-1.36,0,.13.11.31.18.4,1.37,0,2.1.28,3.38.28.12.13.73.27.47.5a1.43,1.43,0,0,1,.75-.29c.76.44-.88.08-.3.61.05-.3,1-.43,1.58-.61-.17-.45-1.3-.08-1.86.11,0-.64,1-1.3,2.31-1.57,1.06-.13.46.4.65.32,2,.12,1.69-1,3.35-.56.65.38,0,.73.17,1-.86.14-1.32-.24-1.91-.23l.72.18a2,2,0,0,1-1.16.11c.55.33,3.36.07,4.9.35.27-.12.74-.23.52-.37l-.49,0c-.45-.28.92-.37.3-.51a4.63,4.63,0,0,1,2.3-.3l.18.38c0-.11-.61-.23-.86-.12.38-.16,1.4.52,1.82,0L232,217a5.27,5.27,0,0,1,2.28-.39c-.37-.36-.19,0-.77-.4.5.53-2.08-.1-1.27.48-.6-.51-1-.24-1.81-.7,0,.12.28.25-.4.16a1.43,1.43,0,0,1-.15.11h0s0,0,0,0a.84.84,0,0,1,.35.2c-.34.28-1.43.25-1.79.4-.41-.07.17-.15-.06-.29l-.54.22c-.06-.29-1.08-.53-.13-.67l-.86,0a3,3,0,0,0-1.63-.17c-.4-.08-1,.31-.67.08l-1.34.16,0-.08c-1.33-.09-2.73.48-4.26-.17a4.52,4.52,0,0,1-1.65.05l-.15-.31c-.58.09-1.73-.36-2,0-.62-.86-2.79-.27-3.8-.44l0,.42a9.65,9.65,0,0,0-2.23.22l.05.39c-.74.3-1.91-.31-3.09-.29.08-.15.38-.1.59,0-1.41-.92-3,.61-4.24-.07a.83.83,0,0,1-.77,0l.07,0h-.13l-.44-.22a1.49,1.49,0,0,0,.37.22,4.69,4.69,0,0,0-1,.15l-.15-.44h-.09c-.36-.17-.29.2-.1.54a2,2,0,0,0-.48.26c-.29-.72-1,.24-1.35-.54-.25.37-1.83.26-2,1.06,0-.1-.12-.15.08-.15a1.51,1.51,0,0,0-1.18,0l-.17-.58-.89.78c-.54-.36-.76-.57-.23-1-1.29.68-1,.26-2.14.94l0-.38c-.39,0-1,.52-1.26.2-.88-.73-4.35-.12-6.61-.82.44,1.16-1-.52-1.14.38-.13-.28-.44-.43-.08-.67-1.15.27-1.73-.44-2.52.31-.13-.27.25-.4.13-.56-.09.06-.37.24-.49.07s.17-.23.35-.35c-1.17.05-1.29.89-1.38,1.69-.59-.38-.89-.33-1.32.19-.21-.26-.56-.53.17-.62-.41,0-2.51-.39-2.55.25-.13-.16-.57-.05-.68,0a12.26,12.26,0,0,0-1.91,0l.25.11c-.36.77-.76.17-1.49.26l0-.08c-1.68-.55-.73.27-2.38-.37l.09.48c-.15,1-1.46-.6-2.42-.21l.34.28c-.52.35-1.46-1.4-2-1.53-.11-.08.18-.14.34-.21-1.37-.6-.18.63-1.2.78-.19-.34.24-.86-.45-.92-.34-.27-2,1.1-2.94.46.2.26.41.52-.07.71-.73.09-2-1-2.63-.15-.1-.07-.13-.13-.13-.2-.56.21-1.82.36-2.16.79-.51-1.6-3.47.8-3.46-.67l-1.71.09,0-.15a2.11,2.11,0,0,0-1.87.61c-.26-.09-.07-.23-.05-.3a3.44,3.44,0,0,0-3.11.5l-.14-.45c-.36.26-2.32-.69-3.89-.14a.3.3,0,0,1,.17-.2c-1.77.52-4.24-1.14-4.89.44l-1.17.4c1.52.1-.22.67.4.92-.59.09-1.54-.46-.81-.54l.12.08c.27-.81-1.88-.27-1.84-.81-3,.08-5.87-.29-8.66-.25l.32.55-1,0c-.26-.12-.34-.42.35-.41-.36-.3-1.16.28-1.18.4-1.36-.19.53-.64.11-.65l-.56.06.12.06c-.45.23-.49.46-1.33.45-.53-.1-.27-.32-.48-.33,0,0-.07-.06-.31,0h-1.23l.49.39c-.54.21-1.15,0-.59.44-.83-.68-4.56-.16-5.07-.36a6.59,6.59,0,0,1-2.44.28c.23.06.37.45-.44.41.3-.79-1.46-.32-2.11-.83.58.33-2.28.15-1.37.61-.67-.05,0-.27-.55-.42-1.59.3-3.51,0-5.48.11,0,.08.3.18-.12.31l-1-.33c-.39.05-.36.41-1.07.2.1.05.25.13,0,.16a57.76,57.76,0,0,0-5.87.13c-2,.09-4,.12-5.92.12.53,0,.18,0-.23.06.26,0,0,.06,0,.08-.55,0-1.1,0-1.64,0-.3.06-1.76.09-1.93.12l.52,0c-.69,0,1,.05.86.13.78-.06,2,.21,3.31.12.28,0-.24,0-.09.07a6.72,6.72,0,0,1,1.43,0h-.08c2,.06,2.89.17,5.16.36l-.17-.14a3.61,3.61,0,0,1,.82.13c.56-.2-1.37-.07-.86-.28.64.31,3.44.09,3.87.5.76,0-.22-.21.53-.18l.2.12.19-.14c.5,0,.74.2.76.3a2.5,2.5,0,0,0-.47,0,14.59,14.59,0,0,0,2,.09l-.72-.11a64.61,64.61,0,0,0,6.53,0l-.15-.12c1.51-.18,1.21.17,2.87.1l-.06,0a3.35,3.35,0,0,1,1.23-.15c-.42.14.79.32.24.48,1.64-.22.81-.18,1.89-.67l.25.23a2,2,0,0,1,1.23-.36c-.68.19.53.37-.23.62,1.74.58,2.58-.49,3.38.33.8-.68-1.51-.42-1.06-.56-.37-.22.66-.5,1.2-.43s1,.91,2.35.94c-.14,0-.15.05-.29,0,.52.2,1-.23,1.67.09.36-.44.83,0,.93-.53l-1.28.11c.73-.13,1.41-.82,2.61-.47a2,2,0,0,1-.7.35c.35.18.68-.1,1,.08-.11.6-1.56.11-2.34.53.38.26,1.47-.39,1.08.24.57-.8,1.38.14,2.33-.47l-.07.36a1.93,1.93,0,0,1,.74-.2l-.5.46c.77-.39,1.48.4,2.21.2-1.54,0-.34-.46-1-.75,1.89-.47,1.09,1,3.21.88-.28,0-1.08-.25-.63-.42a3.22,3.22,0,0,1,1.19.46c1.41-.05-.22-.41.38-.63.48.48.69-.18,1.31-.33v.4c1.6.29.42-.83,1.87-.5l-.62.56.76-.14L135,220a2.56,2.56,0,0,1,1.88-.09c-.19-.3.1-.76.81-.76.49.25-.27.39.74.35-.23.26-.48.58-.91.19-.05.14-.23.26-.28.39a3.29,3.29,0,0,0,1.68.1,1,1,0,0,1-.39-.11l1.46-.57c.23.17,0,.3-.14.42.3,0,.5-.24.94-.27-.11.35-.09.71-.7.87l1.39-.37c.09.16.71.44.53.57.77.22,1.89-.66,2.92-.37a.62.62,0,0,1,.37-.18c1,.09,1.82.56,2.95.07l.65.67c.89-.14-.87-.84.61-1.07,1.05-.21.39.57.76.76.53-.33,1.43-1,2.4-.45A3.25,3.25,0,0,1,151.83,220.23Zm11-.22c-.21.1-.64.41-.79.13C162.28,219.59,162.47,219.85,162.83,220Zm16.73-1.14c-.16.16-.41.08-.68-.1A1,1,0,0,1,179.56,218.87Zm46.58-2.61h0C225.64,216.13,225.81,216.19,226.14,216.26Zm1,.17c.1,0,.09-.09.05-.14s-.29.08-.54.05C226.71,216.43,226.83,216.49,227.13,216.43Zm-106,0,.2.09C120.85,216.67,121,216.58,121.09,216.47Z" transform="translate(-5.84 -4.94)"/><path class="cls-5" d="M177.66,219.53a.51.51,0,0,1-.09-.26C177.48,219.35,177.48,219.44,177.66,219.53Z" transform="translate(-5.84 -4.94)"/><path class="cls-5" d="M145,220.38h0l0,.08Z" transform="translate(-5.84 -4.94)"/><path class="cls-5" d="M211.83,219.49a.87.87,0,0,1-.39-.21C211.43,219.38,211.52,219.46,211.83,219.49Z" transform="translate(-5.84 -4.94)"/><path class="cls-5" d="M232.36,216.09l-.63,0a1.43,1.43,0,0,1,.57.12C232.28,216.19,232.16,216.09,232.36,216.09Z" transform="translate(-5.84 -4.94)"/><path class="cls-5" d="M237.85,217.87c.09,0,.2,0,.29,0l0-.11C237.72,217.72,237.44,217.82,237.85,217.87Z" transform="translate(-5.84 -4.94)"/><path class="cls-5" d="M233,217.06c.05.24.44.16.89.13h-.08C233.89,216.86,233.42,217,233,217.06Z" transform="translate(-5.84 -4.94)"/><path class="cls-5" d="M233.94,217.18a2.8,2.8,0,0,1,.41,0C234.4,217.06,234.18,217.15,233.94,217.18Z" transform="translate(-5.84 -4.94)"/><path class="cls-5" d="M228.38,216.29c.21.07.13-.34.25-.22C228.87,215.74,227.23,216.43,228.38,216.29Z" transform="translate(-5.84 -4.94)"/><polygon class="cls-5" points="227.46 212.91 227.31 212.62 227.06 212.85 227.46 212.91"/><path class="cls-5" d="M229.81,217.61l.71.09s.07-.08.18-.1C230.27,217.58,229.79,217.52,229.81,217.61Z" transform="translate(-5.84 -4.94)"/><path class="cls-5" d="M230.7,217.6a1.81,1.81,0,0,0,.57,0A3.21,3.21,0,0,0,230.7,217.6Z" transform="translate(-5.84 -4.94)"/><polygon class="cls-5" points="226.5 213 226.29 212.93 225.79 212.91 226.5 213"/><path class="cls-5" d="M222.2,217.5l-.78.11c-.07.12.14.2.42.15S222.32,217.63,222.2,217.5Z" transform="translate(-5.84 -4.94)"/><path class="cls-5" d="M224.53,218.48c-.21-.07-.22-.15-.34-.27l0,.44Z" transform="translate(-5.84 -4.94)"/><path class="cls-5" d="M222.28,218.61c-.08.12-1.12.38-.14.33C222.22,218.82,223,218.7,222.28,218.61Z" transform="translate(-5.84 -4.94)"/><polygon class="cls-5" points="204.8 213.13 204.99 213.13 204.97 212.27 204.8 213.13"/><path class="cls-5" d="M200.38,220.33c.91.2.22-.58,1-.32.22-.22-.67-.21-.45-.41C200.42,219.84,200.12,219.71,200.38,220.33Z" transform="translate(-5.84 -4.94)"/><path class="cls-5" d="M201,219.6a2.43,2.43,0,0,0,.28-.14A.85.85,0,0,0,201,219.6Z" transform="translate(-5.84 -4.94)"/><polygon class="cls-5" points="79.31 212.79 78.72 212.83 79.1 212.81 79.31 212.79"/><path class="cls-5" d="M84,217.82h-.14l-.35,0Z" transform="translate(-5.84 -4.94)"/><path class="cls-5" d="M164.47,221.32l0-.16c-.09-.17-.23-.18-.5-.21Z" transform="translate(-5.84 -4.94)"/><polygon class="cls-5" points="150.64 215.84 150.78 215.85 150.52 215.28 150.64 215.84"/><path class="cls-5" d="M149.78,221.4c.28,0,.6-.09.87-.06C150.06,221.43,149.71,220.71,149.78,221.4Z" transform="translate(-5.84 -4.94)"/><path class="cls-5" d="M227.18,228.23h0Z" transform="translate(-5.84 -4.94)"/><polygon class="cls-5" points="218.83 223.12 218.88 223.1 218.51 223.13 218.83 223.12"/><path class="cls-5" d="M222.33,227.91c.22.16.85,0,1.27.1l.07,0,.18-.08C223.35,227.93,222.69,228,222.33,227.91Z" transform="translate(-5.84 -4.94)"/><path class="cls-5" d="M221.08,227.42c.08.08-.27,0,.29.06l-.05,0Z" transform="translate(-5.84 -4.94)"/><path class="cls-5" d="M221.32,227.45c.25,0-.16-.08,0,0Z" transform="translate(-5.84 -4.94)"/><path class="cls-5" d="M220.18,227.37l.32,0c-.06-.05-.35-.1-.25-.12C219.92,227.21,220,227.27,220.18,227.37Z" transform="translate(-5.84 -4.94)"/><path class="cls-5" d="M219.87,227.5H220S220,227.45,219.87,227.5Z" transform="translate(-5.84 -4.94)"/><path class="cls-5" d="M220.4,227.45l-.36,0c.05,0,.05.11.16,0C220.17,227.54,220.24,227.48,220.4,227.45Z" transform="translate(-5.84 -4.94)"/><path class="cls-5" d="M220.6,227.5c.18.07.42.11.09.16C221.31,227.68,221.22,227.54,220.6,227.5Z" transform="translate(-5.84 -4.94)"/><path class="cls-5" d="M222.21,228.07l.24.05.22,0C222.56,228.1,222.2,228,222.21,228.07Z" transform="translate(-5.84 -4.94)"/><path class="cls-5" d="M218.15,227c0,.06.11.17.14.24l.24,0C218.4,227.18,218.17,227.12,218.15,227Z" transform="translate(-5.84 -4.94)"/><path class="cls-5" d="M218.29,227.27l-.36.07C218.25,227.37,218.31,227.33,218.29,227.27Z" transform="translate(-5.84 -4.94)"/><polygon class="cls-5" points="213.97 222.81 214.56 222.69 213.86 222.81 213.97 222.81"/><polygon class="cls-5" points="210.94 221.94 211.14 221.82 210.78 222 210.94 221.94"/><path class="cls-5" d="M215.87,226.81c.15-.11-.21-.24-.05-.31a1.53,1.53,0,0,0-.65.18A1.11,1.11,0,0,1,215.87,226.81Z" transform="translate(-5.84 -4.94)"/><path class="cls-5" d="M214.85,226.8a1.39,1.39,0,0,0,.32-.12A.9.9,0,0,0,214.85,226.8Z" transform="translate(-5.84 -4.94)"/><path class="cls-5" d="M217.32,227.26a.48.48,0,0,0-.29-.2l.14.18Z" transform="translate(-5.84 -4.94)"/><path class="cls-5" d="M217.18,227.25h0l-.3,0Z" transform="translate(-5.84 -4.94)"/><path class="cls-5" d="M217.35,227.26h0S217.34,227.28,217.35,227.26Z" transform="translate(-5.84 -4.94)"/><path class="cls-5" d="M218.87,227.57c-.21.06-.65.14-.22.29C218.8,227.76,218.55,227.67,218.87,227.57Z" transform="translate(-5.84 -4.94)"/><path class="cls-5" d="M217.53,227.49l.38.06s-.08-.11,0-.15Z" transform="translate(-5.84 -4.94)"/><polygon class="cls-5" points="211.5 222.59 211.69 222.55 211.54 222.53 211.5 222.59"/><path class="cls-5" d="M215.51,227a1.25,1.25,0,0,1-.55.07,3.79,3.79,0,0,0,.66.11C215.65,227.16,215.74,227.06,215.51,227Z" transform="translate(-5.84 -4.94)"/><path class="cls-5" d="M216.32,227.16h0S216.32,227.19,216.32,227.16Z" transform="translate(-5.84 -4.94)"/><polygon class="cls-5" points="207.11 222.04 207.14 222.08 207.15 222.04 207.11 222.04"/><path class="cls-5" d="M215.65,227.26a.45.45,0,0,0,.36,0h-.39S215.6,227.26,215.65,227.26Z" transform="translate(-5.84 -4.94)"/><path class="cls-5" d="M214.3,226.85a1.83,1.83,0,0,0,.28.14C214.5,226.92,214.33,226.8,214.3,226.85Z" transform="translate(-5.84 -4.94)"/><path class="cls-5" d="M216.23,227.11h0C216.2,227.06,216.21,227.08,216.23,227.11Z" transform="translate(-5.84 -4.94)"/><path class="cls-5" d="M216.23,227.11a.74.74,0,0,0-.22.1l.27,0Z" transform="translate(-5.84 -4.94)"/><path class="cls-5" d="M212.35,228.44c0-.22.46-.41.83-.18.37-.16.13-.83-.19-1.24,0,.09,0,.17-.39.28.13.13.83.3.52.48-.5.1-.41-.08-.66-.2.21.27-.63.38-.52.79l.43-.14C212.38,228.29,212.22,228.39,212.35,228.44Z" transform="translate(-5.84 -4.94)"/><path class="cls-5" d="M213.7,227.08h.16a1.6,1.6,0,0,1-.54-.32c-.26.08-.31.16-.33.23l.77.08Z" transform="translate(-5.84 -4.94)"/><path class="cls-5" d="M214.56,227.12c-.12.2-.5.27-.27.51.46,0,.32-.16.59-.24-.73,0,.21-.1-.32-.25a1.94,1.94,0,0,1,.4,0,2.4,2.4,0,0,1-.38-.12h0s0,0,0,0h0a.15.15,0,0,1,0,.07c-.22-.05,0-.05,0-.07s0,0,0,0h0l-.74.07A3,3,0,0,0,214.56,227.12Z" transform="translate(-5.84 -4.94)"/><path class="cls-5" d="M218.25,228.19s0,0,0,0S218.16,228.18,218.25,228.19Z" transform="translate(-5.84 -4.94)"/><path class="cls-5" d="M218,228.09a.32.32,0,0,1,.27-.07c.15,0,0,.08,0,.13s.37-.11,0-.19l-.06,0c-.29-.06-.67-.29-.62-.31A1.14,1.14,0,0,0,218,228.09Z" transform="translate(-5.84 -4.94)"/><path class="cls-5" d="M216.23,227.7l-.61.07.31.18v-.1C216.26,227.89,216.19,227.77,216.23,227.7Z" transform="translate(-5.84 -4.94)"/><polygon class="cls-5" points="207.04 221.92 207.12 221.68 206.77 222 207.04 221.92"/><polygon class="cls-5" points="206.25 221.89 206.27 221.67 206.06 221.79 206.25 221.89"/><path class="cls-5" d="M167.12,230.56l-.18.11A.7.7,0,0,0,167.12,230.56Z" transform="translate(-5.84 -4.94)"/><path class="cls-5" d="M168.42,230.6l0-.19C168.39,230.52,168.37,230.59,168.42,230.6Z" transform="translate(-5.84 -4.94)"/><path class="cls-5" d="M192.52,226c-.27-.35-.56-.89-.53-.48l.08.4A.46.46,0,0,1,192.52,226Z" transform="translate(-5.84 -4.94)"/><path class="cls-5" d="M179.11,228.34l.08.13.18-.41Z" transform="translate(-5.84 -4.94)"/><path class="cls-5" d="M178.93,230.13l-.35-.28A1.16,1.16,0,0,0,178.93,230.13Z" transform="translate(-5.84 -4.94)"/><path class="cls-5" d="M160,230.85l-.21.4C160.11,231.26,160,231.05,160,230.85Z" transform="translate(-5.84 -4.94)"/><path class="cls-5" d="M203.93,226.47a1.6,1.6,0,0,0-.57-.22C203.63,226.45,203.85,226.74,203.93,226.47Z" transform="translate(-5.84 -4.94)"/><path class="cls-5" d="M167.63,226.06a.29.29,0,0,0-.15.26C167.59,226.25,167.66,226.17,167.63,226.06Z" transform="translate(-5.84 -4.94)"/><path class="cls-5" d="M202.71,226.22l.12.08a1.3,1.3,0,0,1,.53-.05C203.16,226.1,202.93,226,202.71,226.22Z" transform="translate(-5.84 -4.94)"/><path class="cls-5" d="M134.16,229.21l-.06,0S134.12,229.21,134.16,229.21Z" transform="translate(-5.84 -4.94)"/><path class="cls-5" d="M126.63,228l.31,0Z" transform="translate(-5.84 -4.94)"/><path class="cls-5" d="M208.88,226.5c.17,0,0,0,0,0Z" transform="translate(-5.84 -4.94)"/><path class="cls-5" d="M209.7,227.62a.23.23,0,0,0-.07.13A.22.22,0,0,1,209.7,227.62Z" transform="translate(-5.84 -4.94)"/><path class="cls-5" d="M201,228.29h0C201.06,228.36,201.05,228.35,201,228.29Z" transform="translate(-5.84 -4.94)"/><path class="cls-5" d="M209.13,226.64a1,1,0,0,0-.21-.09Z" transform="translate(-5.84 -4.94)"/><path class="cls-5" d="M209.1,226.51l.15,0C209.27,226.5,209.25,226.47,209.1,226.51Z" transform="translate(-5.84 -4.94)"/><path class="cls-5" d="M208.64,226.5a.87.87,0,0,1,.28.05s0,0,0-.05Z" transform="translate(-5.84 -4.94)"/><path class="cls-5" d="M148,229.22l0,0C147.79,229.32,147.87,229.3,148,229.22Z" transform="translate(-5.84 -4.94)"/><path class="cls-5" d="M188.12,230.17l0,0,0,0Z" transform="translate(-5.84 -4.94)"/><path class="cls-5" d="M187.51,230.48c.26-.52.41-.45.6-.35l-.2-1.19Z" transform="translate(-5.84 -4.94)"/><path class="cls-5" d="M164,230.63l.43.38c-.51.61-.89.38-.49.92.06-1.3,1.66-.09,1.72-1.4l.28.28c-.08,0-.09.06-.17.05.55.64.4-1,1.11-.75.24.1.42.29.25.45l.55-.32a.12.12,0,1,1,0,.23l.83-.1v0a4.72,4.72,0,0,1,.52-.67c.22.2-.1.14-.05.31l.46-.32c.19.35-.19.68-.51.63.43,1.34.38-.33,1.32.46l-.44.16c.28.77.62.5,1.11,1-.11-.25-1-1.21-.48-1.54.14.1.33.15.6-.12,0,.48.26.37.59.34l0,.64c.36-.19.33-.51.54-.8.4.07.48.56.57,1,.64.11-.44-.79.32-.91.53.25.9,0,1.53-.39.38.22-.06.39.07.57l.33-.51c.08,0,.06.17,0,.25.28-.2,0-.64.46-.81.12-.71.9,1,1.43.23.14.18-.06.39,0,.63a4,4,0,0,0,1.24-1.08l.52.41c-.38-.47.11-1,.53-1.51a4.82,4.82,0,0,0-.33-.53l.68-.34c.09.1,0,.32-.09.59l.12-.15c.24.23.12.6-.06,1l-.24-.4a2.54,2.54,0,0,0-.29,1.19.48.48,0,0,1,.22-.17.47.47,0,0,0-.05.26c0,.07.09-.07.21-.23l.15.71,0-.29.89.44c.63-.71,1.18-1.76,2.19-2-.25.51-.05.84-.06,1.45-.28-.64-.79.28-1.31.15.27.07.21.36.14.47l.94-.6c0,.5.2.37.44.58-.18-1,.69-.66,1.07-1,0,.33-.06.67-.53.59.51.74.66-1.16,1.17-.53-.12,0-.18,0-.22.12.26-.29.91-.06.75.22h-.11c.75.11,2.29,0,2.4-.83a8.88,8.88,0,0,1-.15,1.15l1.34-2.74c-.11.69.34,2.34-.28,2.75a.65.65,0,0,0,.77-.05c-.12-.09-.3-1-.13-1.06.45.77.31.41.88,1.06-.19-.15,0-1.23.31-1.2-.05.16,0,1.06-.09,1.18l.72-1.07c-.18.19,0,.9.13,1.19-.07-.21.62,0,.81-.1l-.3-.24c.81.14.8-1.47,1.61-1.41-.1.21-.24,1.3.17,1.42.18-.53.83-2.52,1.54-2.89l.14.29.54-.32a20.83,20.83,0,0,1-1.81,3c.3.23.08.35.53.31.17.27-.24.43-.38.45l1.06.14c0-.59.81-.62.77-1.11l-1.15.65c0-.61.67-1.72,1.42-1.62.19.24-.15,1.06-.13,1.25.1-.2.71-.4.78-.26l-.32.32c.42.21.68-.79,1.19-.25.17,0,.51.73.54.39a7.3,7.3,0,0,1-.15-3.16,6.57,6.57,0,0,1,1.11,1c.29.5-.43,1.2-.18,1.63a.78.78,0,0,1,.23-.41c.18.13-.08.48.32.4.06-.57.8,0,.19-.48.38-.17.41.11.86.07-.14-.36.41-1.22.8-1.37a.7.7,0,0,0,.1.4c.8.05,1.22.29,2,.29.07.12.42.27.27.5.11-.1.21-.27.43-.29.45.43-.5.08-.17.6,0-.3.59-.42.92-.61-.1-.44-.75-.08-1.08.12a1.85,1.85,0,0,1,1.34-1.57c.61-.14.26.4.37.32,1.15.11,1-1,1.94-.56.38.38,0,.73.1,1-.5.14-.76-.23-1.1-.23l.41.19a.71.71,0,0,1-.67.1c.32.34,1.95.07,2.84.36.16-.12.43-.24.3-.37l-.28,0c-.26-.28.53-.38.17-.51a1.68,1.68,0,0,1,1.33-.3l.1.38c0-.11-.34-.24-.49-.12.22-.16.81.51,1,0l-.37-.27c.38-.17.85-.52,1.32-.38-.21-.36-.11,0-.44-.4.29.53-1.21-.1-.74.48-.35-.51-.6-.24-1.05-.7,0,.12.16.25-.23.16l-.09.11,0,0,0,0s0,0,0,0a.51.51,0,0,1,.21.2c-.2.28-.83.25-1,.4-.24-.07.1-.15,0-.3l-.32.23c0-.3-.62-.53-.07-.67l-.5,0a1.07,1.07,0,0,0-.94-.17c-.24-.08-.6.31-.39.08l-.78.15v-.08c-.77-.09-1.58.49-2.46-.17a1.51,1.51,0,0,1-1,.06l-.08-.31c-.33.09-1-.36-1.14,0-.36-.87-1.62-.27-2.2-.45l0,.43a3.18,3.18,0,0,0-1.29.22l0,.39c-.44.3-1.11-.31-1.8-.29,0-.15.22-.11.35,0-.82-.92-1.72.61-2.46-.07a.31.31,0,0,1-.45,0l0,0h-.08a2.62,2.62,0,0,0-.25-.22.89.89,0,0,0,.21.22,1.46,1.46,0,0,0-.57.15l-.09-.45,0,0c-.2-.17-.16.2-.05.54a.87.87,0,0,0-.28.26c-.17-.72-.56.23-.79-.54-.14.37-1.06.26-1.17,1.06,0-.1-.07-.15,0-.16-.23-.09-.47-.19-.68,0l-.1-.58-.51.77c-.31-.35-.44-.56-.13-1-.75.68-.61.25-1.25.94l0-.38c-.22,0-.59.52-.72.2-.51-.73-2.52-.12-3.83-.82.25,1.15-.61-.52-.66.37-.08-.27-.26-.42,0-.66-.66.26-1-.44-1.46.31-.08-.27.14-.4.08-.56-.06.06-.22.23-.29.07s.1-.23.21-.35c-.68,0-.75.89-.8,1.68-.35-.37-.52-.32-.77.2-.12-.26-.32-.53.1-.63-.23,0-1.45-.38-1.48.26-.07-.16-.33,0-.39,0a4.6,4.6,0,0,0-1.11,0l.15.1c-.21.77-.44.18-.86.27v-.08c-1-.56-.42.26-1.38-.37l.06.48c-.09,1-.85-.61-1.41-.21l.2.27c-.3.35-.84-1.39-1.15-1.52-.07-.09.11-.14.2-.21-.8-.6-.1.63-.7.78-.11-.34.14-.86-.26-.92-.2-.27-1.16,1.1-1.7.46.12.26.24.51,0,.71s-1.14-1-1.53-.15a.35.35,0,0,1-.07-.2c-.33.21-1,.36-1.25.79-.3-1.6-2,.79-2-.68l-1,.1,0-.15c-.64-.09-.86.26-1.09.61-.14-.1,0-.23,0-.31-.93-.27-1-.2-1.8.51l-.08-.46c-.22.27-1.35-.68-2.26-.14a.37.37,0,0,1,.1-.2c-1,.53-2.45-1.13-2.83.45l-.68.39c.88.11-.13.68.23.93-.34.09-.89-.46-.46-.54l.06.07c.16-.8-1.09-.27-1.06-.8-1.72.07-3.4-.29-5-.25l.19.54H148c-.15-.13-.2-.42.2-.41-.21-.3-.67.28-.69.39-.78-.19.31-.63.07-.64l-.33.06.08.05c-.27.23-.29.46-.78.45-.3-.09-.15-.31-.27-.33s0-.05-.19,0l-.71,0,.29.39c-.32.21-.67,0-.34.45-.48-.68-2.65-.16-2.94-.36a2.26,2.26,0,0,1-1.41.27c.13.07.21.45-.26.41.17-.78-.85-.31-1.22-.83.33.34-1.32.16-.79.61-.39,0,0-.26-.32-.41-.92.3-2-.06-3.17.11,0,.07.17.18-.07.3l-.61-.33c-.22.06-.2.42-.61.21.05.05.14.13,0,.16a20.43,20.43,0,0,0-3.4.12c-1.15.1-2.3.13-3.43.13.31,0,.1,0-.13.06.15,0,0,.05,0,.08H126c-.17.06-1,.09-1.11.12l.3,0c-.4,0,.56.05.5.13.45-.06,1.18.21,1.91.12.17,0-.13,0,0,.07a2.28,2.28,0,0,1,.83,0h0a27.18,27.18,0,0,1,3,.36l-.1-.15a2.17,2.17,0,0,1,.48.13c.32-.2-.8-.06-.5-.27.37.31,2,.09,2.24.5.44,0-.12-.21.31-.18l.12.12.11-.14c.28,0,.43.2.44.3a1.22,1.22,0,0,0-.27,0c.36.18,1,0,1.16.09l-.41-.1a23.84,23.84,0,0,0,3.78,0l-.09-.12c.88-.19.7.16,1.66.1l0,0a1.19,1.19,0,0,1,.71-.15c-.24.14.46.32.14.48.95-.22.47-.18,1.09-.67l.15.23a.88.88,0,0,1,.71-.37c-.39.2.31.38-.13.63,1,.57,1.49-.49,1.95.33.47-.69-.87-.42-.61-.56-.22-.23.38-.5.7-.43s.55.91,1.35.94c-.08,0-.08,0-.16,0,.3.2.59-.23,1,.09.21-.45.49,0,.55-.54l-.75.12c.42-.14.82-.82,1.51-.47a1.07,1.07,0,0,1-.4.35c.2.18.39-.1.6.08-.06.6-.9.11-1.35.53.21.26.85-.39.62.24.33-.8.8.14,1.35-.47l0,.36c.09-.05.27-.22.43-.2l-.29.46c.44-.39.86.4,1.28.19-.89,0-.2-.46-.58-.74,1.1-.47.64,1,1.87.88-.17,0-.63-.26-.37-.42a1.41,1.41,0,0,1,.69.45c.81,0-.13-.4.22-.63.28.49.4-.18.76-.32v.4c.93.29.25-.84,1.08-.5l-.35.56.44-.14-.09.47c.47-.33.62-.24,1.08-.09a.56.56,0,0,1,.48-.76c.28.25-.16.39.42.35-.13.26-.27.58-.53.19,0,.13-.13.26-.16.39.31.3.76.09,1,.1a.41.41,0,0,1-.23-.11l.84-.57c.14.17,0,.29-.07.42.17,0,.29-.24.54-.27-.07.35-.05.71-.41.86l.81-.36c0,.16.41.44.31.56.44.23,1.09-.65,1.68-.36a.38.38,0,0,1,.22-.18c.56.09,1.05.56,1.71.07l.37.67c.52-.14-.5-.84.36-1.08.61-.2.23.57.44.77.3-.33.83-1,1.39-.46C164.31,230.69,164.17,230.58,164,230.63Zm6.38-.22c-.13.1-.37.41-.46.12C170.05,230,170.15,230.25,170.37,230.41Zm9.68-1.15c-.09.16-.23.08-.39-.1A.39.39,0,0,1,180.05,229.26Zm27-2.6h0C206.74,226.53,206.84,226.58,207,226.66Zm.57.17a.1.1,0,0,0,0-.14c0,.08-.17.08-.32.05C207.35,226.83,207.43,226.89,207.6,226.83Zm-61.41,0,.12.09C146.05,227.07,146.12,227,146.19,226.87Z" transform="translate(-5.84 -4.94)"/><path class="cls-5" d="M179,229.93a1.28,1.28,0,0,1,0-.27A.2.2,0,0,0,179,229.93Z" transform="translate(-5.84 -4.94)"/><path class="cls-5" d="M160,230.78h0l0,.08Z" transform="translate(-5.84 -4.94)"/><path class="cls-5" d="M198.74,229.88a.4.4,0,0,1-.22-.2C198.51,229.78,198.56,229.86,198.74,229.88Z" transform="translate(-5.84 -4.94)"/><path class="cls-5" d="M210.63,226.49l-.37,0a.53.53,0,0,1,.33.12C210.59,226.59,210.52,226.49,210.63,226.49Z" transform="translate(-5.84 -4.94)"/><path class="cls-5" d="M213.81,228.26c.05,0,.11,0,.17,0l0-.11C213.73,228.12,213.57,228.22,213.81,228.26Z" transform="translate(-5.84 -4.94)"/><path class="cls-5" d="M211,227.46c0,.24.26.16.51.13h0C211.51,227.26,211.24,227.36,211,227.46Z" transform="translate(-5.84 -4.94)"/><path class="cls-5" d="M211.54,227.58a1,1,0,0,1,.24,0C211.81,227.45,211.68,227.55,211.54,227.58Z" transform="translate(-5.84 -4.94)"/><path class="cls-5" d="M208.32,226.69c.13.07.08-.34.15-.23C208.61,226.13,207.66,226.82,208.32,226.69Z" transform="translate(-5.84 -4.94)"/><polygon class="cls-5" points="205.34 223.31 205.24 223.01 205.1 223.25 205.34 223.31"/><path class="cls-5" d="M209.15,228l.41.09s.05-.08.11-.11C209.42,228,209.14,227.91,209.15,228Z" transform="translate(-5.84 -4.94)"/><path class="cls-5" d="M209.67,228a.56.56,0,0,0,.33,0A1.47,1.47,0,0,0,209.67,228Z" transform="translate(-5.84 -4.94)"/><polygon class="cls-5" points="204.77 223.39 204.65 223.33 204.36 223.31 204.77 223.39"/><path class="cls-5" d="M204.74,227.9l-.44.1c-.05.13.07.21.24.16S204.81,228,204.74,227.9Z" transform="translate(-5.84 -4.94)"/><path class="cls-5" d="M206.1,228.88c-.12-.07-.13-.15-.2-.27v.44Z" transform="translate(-5.84 -4.94)"/><path class="cls-5" d="M204.79,229c0,.12-.65.38-.08.33C204.76,229.21,205.2,229.1,204.79,229Z" transform="translate(-5.84 -4.94)"/><polygon class="cls-5" points="192.21 223.53 192.32 223.52 192.31 222.66 192.21 223.53"/><path class="cls-5" d="M192.11,230.72c.53.21.12-.58.6-.31.13-.22-.39-.22-.26-.41C192.13,230.24,192,230.11,192.11,230.72Z" transform="translate(-5.84 -4.94)"/><path class="cls-5" d="M192.45,230a1,1,0,0,0,.16-.14A.59.59,0,0,0,192.45,230Z" transform="translate(-5.84 -4.94)"/><polygon class="cls-5" points="119.54 223.19 119.2 223.22 119.42 223.21 119.54 223.19"/><path class="cls-5" d="M124.72,228.22h-.08l-.2,0Z" transform="translate(-5.84 -4.94)"/><path class="cls-5" d="M171.31,231.71l0-.15c-.05-.17-.13-.18-.29-.21Z" transform="translate(-5.84 -4.94)"/><polygon class="cls-5" points="160.85 226.24 160.93 226.25 160.78 225.68 160.85 226.24"/><path class="cls-5" d="M162.81,231.8c.16,0,.34-.09.5-.06C163,231.83,162.77,231.11,162.81,231.8Z" transform="translate(-5.84 -4.94)"/><path class="cls-5" d="M236.66,56.84l.15,0Z" transform="translate(-5.84 -4.94)"/><polygon class="cls-5" points="227.67 51.73 227.73 51.72 227.26 51.75 227.67 51.73"/><path class="cls-5" d="M230.58,56.52c.27.17,1.06,0,1.58.11l.09,0,.24-.09C231.85,56.55,231,56.59,230.58,56.52Z" transform="translate(-5.84 -4.94)"/><path class="cls-5" d="M229,56c.09.08-.34,0,.36.05l-.06,0Z" transform="translate(-5.84 -4.94)"/><path class="cls-5" d="M229.31,56.07c.31,0-.21-.08,0,0Z" transform="translate(-5.84 -4.94)"/><path class="cls-5" d="M227.88,56l.41,0c-.09-.06-.45-.1-.32-.13C227.55,55.82,227.64,55.88,227.88,56Z" transform="translate(-5.84 -4.94)"/><path class="cls-5" d="M227.49,56.12l.21,0S227.61,56.06,227.49,56.12Z" transform="translate(-5.84 -4.94)"/><path class="cls-5" d="M228.15,56.07l-.45,0c.06,0,.07.11.21,0C227.87,56.15,228,56.1,228.15,56.07Z" transform="translate(-5.84 -4.94)"/><path class="cls-5" d="M228.4,56.12c.23.06.53.11.12.15C229.3,56.29,229.18,56.15,228.4,56.12Z" transform="translate(-5.84 -4.94)"/><path class="cls-5" d="M230.42,56.69l.31.05.27-.05C230.86,56.72,230.41,56.64,230.42,56.69Z" transform="translate(-5.84 -4.94)"/><path class="cls-5" d="M225.34,55.65c0,.05.14.16.17.23l.3,0C225.65,55.79,225.36,55.73,225.34,55.65Z" transform="translate(-5.84 -4.94)"/><path class="cls-5" d="M225.51,55.88l-.45.07C225.46,56,225.53,56,225.51,55.88Z" transform="translate(-5.84 -4.94)"/><polygon class="cls-5" points="221.58 51.43 222.32 51.3 221.44 51.43 221.58 51.43"/><polygon class="cls-5" points="217.78 50.56 218.03 50.43 217.58 50.62 217.78 50.56"/><path class="cls-5" d="M222.48,55.43c.19-.12-.26-.25-.06-.31a2.3,2.3,0,0,0-.82.17A1.63,1.63,0,0,1,222.48,55.43Z" transform="translate(-5.84 -4.94)"/><path class="cls-5" d="M221.2,55.42a3.7,3.7,0,0,0,.4-.13A1.33,1.33,0,0,0,221.2,55.42Z" transform="translate(-5.84 -4.94)"/><path class="cls-5" d="M224.29,55.87a.57.57,0,0,0-.36-.2l.18.19Z" transform="translate(-5.84 -4.94)"/><path class="cls-5" d="M224.12,55.86h0l-.38,0Z" transform="translate(-5.84 -4.94)"/><path class="cls-5" d="M224.33,55.88h0S224.32,55.9,224.33,55.88Z" transform="translate(-5.84 -4.94)"/><path class="cls-5" d="M226.24,56.18c-.27.07-.82.14-.28.29C226.15,56.38,225.84,56.29,226.24,56.18Z" transform="translate(-5.84 -4.94)"/><path class="cls-5" d="M224.55,56.1l.48.06s-.09-.11,0-.15Z" transform="translate(-5.84 -4.94)"/><polygon class="cls-5" points="218.48 51.21 218.71 51.17 218.53 51.14 218.48 51.21"/><path class="cls-5" d="M222,55.66a2.09,2.09,0,0,1-.68.07,5.74,5.74,0,0,0,.82.1C222.2,55.77,222.32,55.67,222,55.66Z" transform="translate(-5.84 -4.94)"/><path class="cls-5" d="M223,55.78h0S223.05,55.81,223,55.78Z" transform="translate(-5.84 -4.94)"/><polygon class="cls-5" points="212.98 50.65 213.02 50.7 213.03 50.66 212.98 50.65"/><path class="cls-5" d="M222.21,55.87a.61.61,0,0,0,.44,0,4,4,0,0,1-.49,0S222.14,55.88,222.21,55.87Z" transform="translate(-5.84 -4.94)"/><path class="cls-5" d="M220.5,55.47a3,3,0,0,0,.36.13C220.75,55.53,220.54,55.41,220.5,55.47Z" transform="translate(-5.84 -4.94)"/><path class="cls-5" d="M222.93,55.73h0C222.89,55.68,222.9,55.7,222.93,55.73Z" transform="translate(-5.84 -4.94)"/><path class="cls-5" d="M222.93,55.73a1.16,1.16,0,0,0-.28.1,1.84,1.84,0,0,0,.35,0A.13.13,0,0,1,222.93,55.73Z" transform="translate(-5.84 -4.94)"/><path class="cls-5" d="M218.06,57.06c0-.22.58-.41,1-.19.46-.15.16-.82-.24-1.24,0,.09,0,.18-.49.29.17.12,1,.3.66.48-.63.1-.52-.09-.82-.21.26.27-.8.38-.66.8l.55-.15C218.11,56.9,217.91,57,218.06,57.06Z" transform="translate(-5.84 -4.94)"/><path class="cls-5" d="M219.76,55.7h.2a2.23,2.23,0,0,1-.68-.32c-.32.08-.39.16-.41.22l1,.08Z" transform="translate(-5.84 -4.94)"/><path class="cls-5" d="M220.83,55.73c-.15.2-.62.28-.33.52.57,0,.4-.17.74-.24-.92,0,.26-.1-.4-.25a2.91,2.91,0,0,1,.5,0l-.48-.13,0,0h0s.06.05,0,0h0a.12.12,0,0,1,0,.08c-.27-.06,0-.06,0-.08a0,0,0,0,0,0,0h0l-.92.07A4.76,4.76,0,0,0,220.83,55.73Z" transform="translate(-5.84 -4.94)"/><path class="cls-5" d="M225.46,56.8s0,0,0,0S225.35,56.8,225.46,56.8Z" transform="translate(-5.84 -4.94)"/><path class="cls-5" d="M225.08,56.7a.59.59,0,0,1,.34-.06c.19,0,0,.07,0,.13s.46-.11,0-.2l-.06,0a1.75,1.75,0,0,1-.79-.3A1.41,1.41,0,0,0,225.08,56.7Z" transform="translate(-5.84 -4.94)"/><path class="cls-5" d="M222.93,56.31l-.77.07.39.18,0-.1C223,56.51,222.88,56.39,222.93,56.31Z" transform="translate(-5.84 -4.94)"/><polygon class="cls-5" points="212.89 50.53 212.99 50.3 212.55 50.62 212.89 50.53"/><polygon class="cls-5" points="211.89 50.51 211.93 50.29 211.67 50.41 211.89 50.51"/><path class="cls-5" d="M161.37,59.18l-.23.1A.86.86,0,0,0,161.37,59.18Z" transform="translate(-5.84 -4.94)"/><path class="cls-5" d="M163,59.22l0-.19C163,59.13,162.94,59.21,163,59.22Z" transform="translate(-5.84 -4.94)"/><path class="cls-5" d="M193.2,54.58c-.33-.34-.69-.88-.65-.47l.1.4A.64.64,0,0,1,193.2,54.58Z" transform="translate(-5.84 -4.94)"/><path class="cls-5" d="M176.4,57l.1.13.22-.42Z" transform="translate(-5.84 -4.94)"/><path class="cls-5" d="M176.17,58.75l-.43-.28A1.28,1.28,0,0,0,176.17,58.75Z" transform="translate(-5.84 -4.94)"/><path class="cls-5" d="M152.44,59.47l-.27.4C152.59,59.87,152.4,59.66,152.44,59.47Z" transform="translate(-5.84 -4.94)"/><path class="cls-5" d="M207.5,55.09a2,2,0,0,0-.7-.22C207.14,55.07,207.41,55.36,207.5,55.09Z" transform="translate(-5.84 -4.94)"/><path class="cls-5" d="M162,54.68c-.14.08-.2.16-.19.26C162,54.86,162,54.78,162,54.68Z" transform="translate(-5.84 -4.94)"/><path class="cls-5" d="M206,54.83l.15.09a1.61,1.61,0,0,1,.67-.05A.68.68,0,0,0,206,54.83Z" transform="translate(-5.84 -4.94)"/><path class="cls-5" d="M120.05,57.83l-.07,0S120,57.83,120.05,57.83Z" transform="translate(-5.84 -4.94)"/><path class="cls-5" d="M110.61,56.66l.39,0Z" transform="translate(-5.84 -4.94)"/><path class="cls-5" d="M213.72,55.12c.21,0,0,0,0,0Z" transform="translate(-5.84 -4.94)"/><path class="cls-5" d="M214.75,56.23a.18.18,0,0,0-.09.13A.25.25,0,0,1,214.75,56.23Z" transform="translate(-5.84 -4.94)"/><path class="cls-5" d="M203.87,56.91h0C203.91,57,203.9,57,203.87,56.91Z" transform="translate(-5.84 -4.94)"/><path class="cls-5" d="M214,55.26a1.39,1.39,0,0,0-.27-.1A1.2,1.2,0,0,0,214,55.26Z" transform="translate(-5.84 -4.94)"/><path class="cls-5" d="M214,55.13l.19,0S214.18,55.09,214,55.13Z" transform="translate(-5.84 -4.94)"/><path class="cls-5" d="M213.42,55.12a1.86,1.86,0,0,1,.34,0s-.06,0,0,0Z" transform="translate(-5.84 -4.94)"/><path class="cls-5" d="M137.4,57.84l0,0C137.14,57.94,137.24,57.92,137.4,57.84Z" transform="translate(-5.84 -4.94)"/><path class="cls-5" d="M187.69,58.78l0,0h0Z" transform="translate(-5.84 -4.94)"/><path class="cls-5" d="M186.93,59.1c.32-.52.51-.46.75-.35l-.25-1.2Z" transform="translate(-5.84 -4.94)"/><path class="cls-5" d="M157.45,59.25l.54.38c-.65.6-1.11.38-.61.91.07-1.29,2.07-.09,2.15-1.4l.35.28c-.1,0-.12.07-.22,0,.69.64.51-.94,1.4-.75.3.11.52.3.31.46l.68-.33c.2,0,.15.26,0,.23l1-.09v0a4.66,4.66,0,0,1,.66-.67c.26.19-.14.14-.07.31l.58-.32c.23.35-.24.68-.64.63.54,1.34.48-.34,1.64.45l-.54.17c.35.76.77.49,1.39,1-.14-.25-1.23-1.21-.61-1.54a.59.59,0,0,0,.75-.11c0,.48.34.36.75.34l0,.63c.45-.18.42-.5.68-.79.5.07.6.56.72,1,.8.1-.55-.8.39-.91.67.24,1.13,0,1.93-.4.46.22-.08.39.08.58l.42-.51c.1,0,.06.16.05.24.35-.19,0-.63.57-.81.15-.7,1.12,1,1.8.23.17.18-.08.39,0,.64a5,5,0,0,0,1.56-1.09l.65.42c-.48-.48.13-1,.66-1.51a4.8,4.8,0,0,0-.41-.53l.85-.34c.11.1,0,.32-.12.58l.16-.15c.3.24.14.61-.08,1l-.3-.39a2.26,2.26,0,0,0-.37,1.19.6.6,0,0,1,.28-.17c0,.1-.09.2-.06.26s.12-.08.26-.24l.19.71,0-.28L178,59c.8-.72,1.49-1.77,2.76-2.06-.32.52-.07.85-.09,1.46-.34-.65-1,.28-1.63.15a.27.27,0,0,1,.18.46l1.16-.6c0,.51.25.38.56.58-.23-1,.87-.66,1.35-1,0,.33-.09.66-.67.59.64.73.83-1.16,1.46-.54-.15,0-.22,0-.28.13.33-.29,1.14-.07,1,.22h-.14c.94.11,2.86,0,3-.84a11.41,11.41,0,0,1-.18,1.16L188.07,56c-.14.7.42,2.35-.36,2.75a1,1,0,0,0,1,0c-.16-.1-.38-1-.18-1.07.58.77.4.41,1.11,1.06-.23-.14,0-1.23.39-1.19-.06.16,0,1.06-.11,1.17l.91-1.06c-.23.19,0,.89.16,1.18-.1-.2.78,0,1-.1l-.39-.23c1,.14,1-1.47,2-1.42-.12.21-.3,1.31.21,1.43.24-.53,1-2.52,1.93-2.9l.18.3.68-.33a19.85,19.85,0,0,1-2.28,3c.38.23.11.35.68.31.2.27-.31.43-.48.45l1.33.14c-.06-.6,1-.62,1-1.12l-1.44.65a1.82,1.82,0,0,1,1.77-1.61c.24.23-.17,1-.15,1.25.12-.21.89-.4,1-.26l-.39.32c.52.2.85-.79,1.48-.25.22,0,.65.72.69.38a5.76,5.76,0,0,1-.19-3.16,8.23,8.23,0,0,1,1.39.95c.35.5-.54,1.21-.24,1.64a.76.76,0,0,1,.3-.41c.22.12-.1.47.4.39.08-.56,1,0,.23-.48.49-.16.52.11,1.09.08-.19-.36.51-1.22,1-1.37a.59.59,0,0,0,.14.4c1,.05,1.52.29,2.45.28.09.13.53.28.34.5a.9.9,0,0,1,.54-.28c.56.43-.63.07-.21.6,0-.3.74-.42,1.14-.61-.12-.45-.94-.08-1.34.11,0-.64.7-1.3,1.67-1.56.77-.14.34.4.47.31,1.44.12,1.23-1,2.43-.55.48.37,0,.72.13,1-.63.14-1-.24-1.39-.23l.52.18a1.07,1.07,0,0,1-.84.11c.4.34,2.44.07,3.56.36.19-.12.54-.24.37-.38l-.35,0c-.32-.29.67-.38.22-.52a2.53,2.53,0,0,1,1.67-.29l.12.37c0-.11-.43-.23-.62-.12.28-.16,1,.52,1.33,0l-.47-.26a2.91,2.91,0,0,1,1.65-.39c-.26-.36-.13,0-.55-.39.36.53-1.51-.11-.93.47-.43-.51-.74-.23-1.31-.7,0,.13.2.25-.29.16a1.14,1.14,0,0,1-.11.11h0l0,0s0,0,0,0a.49.49,0,0,1,.25.21c-.24.28-1,.24-1.3.39-.29-.07.13-.14,0-.29l-.4.22c0-.29-.78-.52-.09-.67l-.62,0a1.72,1.72,0,0,0-1.19-.17c-.29-.08-.74.32-.49.08l-1,.16v-.08c-1-.09-2,.48-3.09-.17a2.45,2.45,0,0,1-1.21,0l-.1-.31c-.42.1-1.26-.35-1.44,0-.45-.86-2-.26-2.76-.44l0,.42a4.94,4.94,0,0,0-1.62.23l0,.38c-.54.31-1.39-.3-2.25-.29.06-.14.28-.1.43,0-1-.92-2.15.61-3.08-.06a.46.46,0,0,1-.56,0l.06,0h-.1c-.1-.07-.2-.15-.32-.22a1.27,1.27,0,0,0,.27.23,2.39,2.39,0,0,0-.71.14l-.11-.44h-.06c-.26-.17-.21.21-.07.54a1.06,1.06,0,0,0-.35.27c-.22-.73-.7.23-1-.55-.18.38-1.33.27-1.47,1.07,0-.11-.09-.16.06-.16a.83.83,0,0,0-.86,0l-.12-.58-.65.78c-.39-.36-.55-.57-.16-1-.94.68-.76.25-1.56.93l0-.38c-.29,0-.74.52-.92.2-.63-.73-3.15-.12-4.79-.81.32,1.15-.76-.52-.83.37-.09-.27-.32-.43-.06-.66-.83.26-1.25-.45-1.83.31-.1-.28.18-.4.09-.57-.06.06-.26.24-.35.08s.12-.23.26-.35c-.86,0-.94.89-1,1.68-.43-.38-.65-.33-1,.2-.15-.26-.4-.54.13-.63-.3,0-1.82-.39-1.85.25-.1-.16-.42,0-.5,0a6.49,6.49,0,0,0-1.39,0l.19.11c-.26.77-.55.17-1.08.26v-.08c-1.21-.55-.52.27-1.72-.36l.06.48c-.11,1-1.06-.61-1.75-.21l.25.27c-.38.35-1.07-1.4-1.45-1.52-.08-.09.13-.15.25-.21-1-.6-.13.62-.87.77-.14-.33.17-.86-.33-.91-.25-.27-1.45,1.09-2.14.46.15.25.3.51,0,.7-.53.1-1.44-1-1.92-.14a.32.32,0,0,1-.09-.2c-.41.21-1.32.35-1.56.79-.38-1.6-2.52.79-2.52-.68l-1.24.09,0-.15a1.32,1.32,0,0,0-1.36.62c-.18-.1,0-.23,0-.31-1.17-.28-1.28-.21-2.26.51l-.1-.46c-.27.26-1.69-.69-2.83-.14a.31.31,0,0,1,.13-.2c-1.29.53-3.08-1.14-3.55.44l-.85.4c1.1.11-.16.67.29.92-.43.09-1.12-.46-.59-.54l.09.08c.19-.81-1.37-.27-1.34-.81-2.16.08-4.26-.29-6.28-.25l.23.55-.71,0c-.18-.12-.25-.42.26-.41-.27-.3-.85.28-.86.4-1-.19.38-.64.08-.64l-.41,0,.09.06c-.33.23-.36.46-1,.45-.39-.09-.2-.32-.35-.33,0,0-.05,0-.23,0h-.89l.36.39c-.4.21-.84,0-.43.44-.6-.68-3.32-.16-3.69-.35a3.54,3.54,0,0,1-1.77.27c.17.07.27.45-.31.41.21-.78-1.07-.32-1.54-.83.42.33-1.65.15-1,.61-.49,0,0-.26-.4-.42-1.16.31-2.55,0-4,.12,0,.07.21.18-.09.3l-.76-.33c-.28,0-.26.42-.77.2.07.05.18.14,0,.17a30.63,30.63,0,0,0-4.27.12c-1.43.1-2.87.12-4.29.13.38,0,.13,0-.17.06.19,0,0,0,0,.08h-1.18c-.22.06-1.28.09-1.4.12l.37,0c-.5,0,.7,0,.63.13.56-.07,1.48.21,2.4.11.2,0-.17,0-.06.08a3.09,3.09,0,0,1,1,0l-.06,0c1.47.05,2.1.17,3.75.35l-.12-.14a2,2,0,0,1,.59.13c.41-.2-1-.07-.62-.28.47.32,2.49.09,2.81.5.55,0-.16-.21.39-.18l.14.12.14-.14c.36,0,.54.2.55.3s-.25,0-.34,0a7.73,7.73,0,0,0,1.47.09l-.53-.11a35.7,35.7,0,0,0,4.74,0l-.11-.12c1.1-.19.88.16,2.08.1l0,0a1.8,1.8,0,0,1,.89-.16c-.3.15.58.33.18.48,1.19-.22.59-.18,1.37-.67l.18.23a1.18,1.18,0,0,1,.89-.36c-.49.19.39.37-.16.62,1.26.58,1.87-.48,2.45.33.58-.68-1.09-.42-.77-.55-.27-.23.48-.51.88-.44s.68.92,1.7.94c-.11,0-.11,0-.21,0,.38.2.74-.23,1.21.09.26-.44.6.05.68-.53L136,58c.52-.13,1-.81,1.89-.47a1.48,1.48,0,0,1-.51.36c.26.18.49-.11.76.08-.08.59-1.13.1-1.7.53.27.25,1.07-.39.79.23.4-.8,1,.15,1.68-.47l0,.37a1.12,1.12,0,0,1,.53-.21l-.36.47c.55-.39,1.07.39,1.6.19-1.11,0-.25-.46-.72-.75,1.38-.47.79,1,2.34.89-.21,0-.79-.26-.46-.43a2,2,0,0,1,.86.46c1-.05-.16-.41.28-.63.35.48.5-.18.95-.33v.41c1.16.29.31-.84,1.36-.51l-.45.56.55-.13-.11.46a1.38,1.38,0,0,1,1.36-.09.58.58,0,0,1,.59-.76c.35.26-.19.4.54.35-.17.26-.35.59-.67.19,0,.14-.16.26-.19.4.37.29,1,.09,1.21.09a.58.58,0,0,1-.28-.1l1.06-.57c.16.16,0,.29-.1.41.21,0,.36-.23.68-.26-.08.34-.06.71-.51.86l1-.36c.07.15.52.43.39.56.56.23,1.37-.66,2.11-.36a.45.45,0,0,1,.28-.19c.69.1,1.31.56,2.14.07l.47.68c.64-.14-.64-.85.44-1.08.76-.2.29.57.55.76.38-.33,1-1,1.74-.45C157.85,59.3,157.67,59.2,157.45,59.25Zm8-.23c-.16.1-.46.41-.58.13C165,58.6,165.17,58.87,165.44,59Zm12.14-1.14c-.12.16-.3.08-.5-.1A.6.6,0,0,1,177.58,57.88Zm33.81-2.61v0C211,55.14,211.15,55.2,211.39,55.27Zm.72.17c.07,0,.07-.09,0-.13s-.21.08-.4,0C211.8,55.44,211.9,55.51,212.11,55.44Zm-77,.05.14.08C135,55.68,135.05,55.59,135.14,55.49Z" transform="translate(-5.84 -4.94)"/><path class="cls-5" d="M176.2,58.54a1.11,1.11,0,0,1-.07-.26C176.07,58.36,176.07,58.45,176.2,58.54Z" transform="translate(-5.84 -4.94)"/><path class="cls-5" d="M152.49,59.39h0a.19.19,0,0,0,0,.08Z" transform="translate(-5.84 -4.94)"/><path class="cls-5" d="M201,58.5a.69.69,0,0,1-.29-.2C200.72,58.4,200.78,58.48,201,58.5Z" transform="translate(-5.84 -4.94)"/><path class="cls-5" d="M215.91,55.11l-.46,0a.77.77,0,0,1,.41.12C215.85,55.2,215.77,55.1,215.91,55.11Z" transform="translate(-5.84 -4.94)"/><path class="cls-5" d="M219.89,56.88c.07,0,.15,0,.21,0l0-.12C219.8,56.74,219.6,56.83,219.89,56.88Z" transform="translate(-5.84 -4.94)"/><path class="cls-5" d="M216.33,56.07c0,.24.33.17.65.13h-.06C217,55.88,216.67,56,216.33,56.07Z" transform="translate(-5.84 -4.94)"/><path class="cls-5" d="M217.05,56.19a1.51,1.51,0,0,1,.3,0C217.39,56.07,217.23,56.17,217.05,56.19Z" transform="translate(-5.84 -4.94)"/><path class="cls-5" d="M213,55.3c.15.07.1-.33.18-.22C213.37,54.75,212.18,55.44,213,55.3Z" transform="translate(-5.84 -4.94)"/><polygon class="cls-5" points="210.75 51.92 210.64 51.63 210.46 51.86 210.75 51.92"/><path class="cls-5" d="M214.05,56.62l.52.09c0-.05.06-.08.14-.1C214.39,56.6,214,56.53,214.05,56.62Z" transform="translate(-5.84 -4.94)"/><path class="cls-5" d="M214.71,56.61a.84.84,0,0,0,.41,0A1.63,1.63,0,0,0,214.71,56.61Z" transform="translate(-5.84 -4.94)"/><polygon class="cls-5" points="210.05 52.01 209.9 51.95 209.53 51.93 210.05 52.01"/><path class="cls-5" d="M208.53,56.52l-.56.1c-.06.13.1.2.3.15S208.62,56.64,208.53,56.52Z" transform="translate(-5.84 -4.94)"/><path class="cls-5" d="M210.23,57.49c-.15-.07-.17-.15-.25-.26l0,.44Z" transform="translate(-5.84 -4.94)"/><path class="cls-5" d="M208.59,57.62c-.05.13-.81.38-.1.34C208.55,57.83,209.11,57.72,208.59,57.62Z" transform="translate(-5.84 -4.94)"/><polygon class="cls-5" points="194.3 52.15 194.44 52.14 194.42 51.28 194.3 52.15"/><path class="cls-5" d="M192.69,59.34c.67.21.16-.58.76-.31.16-.23-.49-.22-.33-.41C192.72,58.85,192.51,58.73,192.69,59.34Z" transform="translate(-5.84 -4.94)"/><path class="cls-5" d="M193.12,58.62l.21-.15A.59.59,0,0,0,193.12,58.62Z" transform="translate(-5.84 -4.94)"/><polygon class="cls-5" points="103.21 51.8 102.78 51.84 103.06 51.83 103.21 51.8"/><path class="cls-5" d="M108.23,56.83h-.1l-.26,0Z" transform="translate(-5.84 -4.94)"/><path class="cls-5" d="M166.63,60.33l0-.15c-.07-.17-.17-.19-.37-.21Z" transform="translate(-5.84 -4.94)"/><polygon class="cls-5" points="154.99 54.85 155.09 54.87 154.9 54.29 154.99 54.85"/><path class="cls-5" d="M156,60.41c.19,0,.43-.09.63-.06C156.16,60.44,155.91,59.72,156,60.41Z" transform="translate(-5.84 -4.94)"/><path class="cls-5" d="M203.83,46.46l.07,0Z" transform="translate(-5.84 -4.94)"/><polygon class="cls-5" points="196.45 41.36 196.48 41.34 196.25 41.37 196.45 41.36"/><path class="cls-5" d="M200.85,46.14c.14.17.52,0,.78.11l0,0,.12-.09A5.38,5.38,0,0,1,200.85,46.14Z" transform="translate(-5.84 -4.94)"/><path class="cls-5" d="M200.09,45.66c0,.08-.17,0,.18.05l0,0Z" transform="translate(-5.84 -4.94)"/><path class="cls-5" d="M200.23,45.69c.15,0-.1-.08,0,0Z" transform="translate(-5.84 -4.94)"/><path class="cls-5" d="M199.53,45.61l.2,0c0-.06-.22-.1-.15-.13C199.37,45.44,199.42,45.5,199.53,45.61Z" transform="translate(-5.84 -4.94)"/><path class="cls-5" d="M199.34,45.74l.11,0S199.4,45.68,199.34,45.74Z" transform="translate(-5.84 -4.94)"/><path class="cls-5" d="M199.67,45.69l-.22,0s0,.11.1,0C199.53,45.77,199.57,45.72,199.67,45.69Z" transform="translate(-5.84 -4.94)"/><path class="cls-5" d="M199.79,45.74c.11.06.26.11.06.15C200.23,45.91,200.17,45.77,199.79,45.74Z" transform="translate(-5.84 -4.94)"/><path class="cls-5" d="M200.78,46.31l.15,0,.13,0C201,46.34,200.77,46.26,200.78,46.31Z" transform="translate(-5.84 -4.94)"/><path class="cls-5" d="M198.29,45.27s.07.16.08.23l.15,0C198.44,45.41,198.3,45.35,198.29,45.27Z" transform="translate(-5.84 -4.94)"/><path class="cls-5" d="M198.37,45.5l-.22.07C198.35,45.61,198.38,45.57,198.37,45.5Z" transform="translate(-5.84 -4.94)"/><path class="cls-5" d="M199.31,46l.36-.13a3.45,3.45,0,0,0-.43.12Z" transform="translate(-5.84 -4.94)"/><polygon class="cls-5" points="191.61 40.18 191.73 40.05 191.51 40.24 191.61 40.18"/><path class="cls-5" d="M196.89,45.05c.09-.11-.13-.24,0-.31a.75.75,0,0,0-.4.17A.5.5,0,0,1,196.89,45.05Z" transform="translate(-5.84 -4.94)"/><path class="cls-5" d="M196.27,45a.64.64,0,0,0,.19-.13A.54.54,0,0,0,196.27,45Z" transform="translate(-5.84 -4.94)"/><path class="cls-5" d="M197.78,45.49a.35.35,0,0,0-.18-.2l.09.19Z" transform="translate(-5.84 -4.94)"/><path class="cls-5" d="M197.69,45.48h0l-.19,0Z" transform="translate(-5.84 -4.94)"/><path class="cls-5" d="M197.8,45.5h0S197.79,45.52,197.8,45.5Z" transform="translate(-5.84 -4.94)"/><path class="cls-5" d="M198.73,45.8c-.13.07-.4.14-.14.29C198.68,46,198.54,45.91,198.73,45.8Z" transform="translate(-5.84 -4.94)"/><path class="cls-5" d="M197.91,45.72l.23.06s0-.11,0-.15Z" transform="translate(-5.84 -4.94)"/><polygon class="cls-5" points="191.95 40.83 192.06 40.79 191.98 40.76 191.95 40.83"/><path class="cls-5" d="M196.67,45.28a.5.5,0,0,1-.34.07,2,2,0,0,0,.4.11C196.75,45.4,196.81,45.29,196.67,45.28Z" transform="translate(-5.84 -4.94)"/><path class="cls-5" d="M197.16,45.4h0S197.17,45.43,197.16,45.4Z" transform="translate(-5.84 -4.94)"/><polygon class="cls-5" points="189.26 40.28 189.28 40.32 189.28 40.28 189.26 40.28"/><path class="cls-5" d="M196.76,45.49a.16.16,0,0,0,.21,0h-.24S196.72,45.5,196.76,45.49Z" transform="translate(-5.84 -4.94)"/><path class="cls-5" d="M195.92,45.09a1.41,1.41,0,0,0,.18.14C196.05,45.15,195.94,45,195.92,45.09Z" transform="translate(-5.84 -4.94)"/><path class="cls-5" d="M197.11,45.35h0S197.09,45.32,197.11,45.35Z" transform="translate(-5.84 -4.94)"/><path class="cls-5" d="M197.11,45.35a.61.61,0,0,0-.14.1l.17,0Z" transform="translate(-5.84 -4.94)"/><path class="cls-5" d="M194.73,46.68a.29.29,0,0,1,.51-.19c.22-.15.07-.82-.12-1.23,0,.09,0,.17-.24.28.08.12.51.3.32.48s-.25-.08-.4-.21c.12.28-.39.38-.33.79l.27-.14C194.75,46.52,194.65,46.62,194.73,46.68Z" transform="translate(-5.84 -4.94)"/><path class="cls-5" d="M195.56,45.32h.09a1,1,0,0,1-.32-.32c-.16.08-.2.16-.21.23l.47.07Z" transform="translate(-5.84 -4.94)"/><path class="cls-5" d="M196.08,45.35c-.07.2-.3.28-.16.52.28,0,.2-.17.36-.24-.45,0,.13-.1-.19-.25a.66.66,0,0,1,.24,0l-.23-.12h0s0,0,0,0h0a.19.19,0,0,1,0,.08c-.13-.06,0-.06,0-.08v0h0l-.46.07A1.21,1.21,0,0,0,196.08,45.35Z" transform="translate(-5.84 -4.94)"/><path class="cls-5" d="M198.35,46.42a0,0,0,0,1,0,0S198.3,46.42,198.35,46.42Z" transform="translate(-5.84 -4.94)"/><path class="cls-5" d="M198.16,46.32s.07-.08.17-.06,0,.07,0,.13.22-.11,0-.2l0,0c-.18-.06-.42-.28-.39-.3A1.37,1.37,0,0,0,198.16,46.32Z" transform="translate(-5.84 -4.94)"/><path class="cls-5" d="M197.11,45.93l-.38.08.2.17v-.1C197.13,46.13,197.08,46,197.11,45.93Z" transform="translate(-5.84 -4.94)"/><polygon class="cls-5" points="189.21 40.16 189.26 39.92 189.05 40.24 189.21 40.16"/><polygon class="cls-5" points="188.72 40.13 188.74 39.91 188.61 40.03 188.72 40.13"/><path class="cls-5" d="M167,48.8l-.11.1A.55.55,0,0,0,167,48.8Z" transform="translate(-5.84 -4.94)"/><path class="cls-5" d="M167.77,48.84l0-.19C167.75,48.75,167.73,48.83,167.77,48.84Z" transform="translate(-5.84 -4.94)"/><path class="cls-5" d="M182.55,44.2c-.16-.34-.34-.88-.32-.47l.05.4A.19.19,0,0,1,182.55,44.2Z" transform="translate(-5.84 -4.94)"/><path class="cls-5" d="M174.33,46.58l0,.13.1-.42Z" transform="translate(-5.84 -4.94)"/><path class="cls-5" d="M174.21,48.37l-.21-.28A1.08,1.08,0,0,0,174.21,48.37Z" transform="translate(-5.84 -4.94)"/><path class="cls-5" d="M162.59,49.09l-.12.4C162.67,49.49,162.58,49.28,162.59,49.09Z" transform="translate(-5.84 -4.94)"/><path class="cls-5" d="M189.56,44.71a.7.7,0,0,0-.35-.22C189.38,44.69,189.51,45,189.56,44.71Z" transform="translate(-5.84 -4.94)"/><path class="cls-5" d="M167.28,44.3a.35.35,0,0,0-.09.26A.29.29,0,0,0,167.28,44.3Z" transform="translate(-5.84 -4.94)"/><path class="cls-5" d="M188.81,44.45a.71.71,0,0,0,.07.09.42.42,0,0,1,.33,0C189.09,44.34,189,44.23,188.81,44.45Z" transform="translate(-5.84 -4.94)"/><path class="cls-5" d="M146.74,47.45l0,0S146.71,47.45,146.74,47.45Z" transform="translate(-5.84 -4.94)"/><path class="cls-5" d="M142.12,46.28l.19,0Z" transform="translate(-5.84 -4.94)"/><path class="cls-5" d="M192.6,44.74c.1,0,0,0,0,0Z" transform="translate(-5.84 -4.94)"/><path class="cls-5" d="M193.1,45.85a.22.22,0,0,0,0,.13A.33.33,0,0,1,193.1,45.85Z" transform="translate(-5.84 -4.94)"/><path class="cls-5" d="M187.78,46.53h0C187.8,46.6,187.79,46.58,187.78,46.53Z" transform="translate(-5.84 -4.94)"/><path class="cls-5" d="M192.75,44.88a.45.45,0,0,0-.13-.1A.38.38,0,0,0,192.75,44.88Z" transform="translate(-5.84 -4.94)"/><path class="cls-5" d="M192.73,44.75l.09,0S192.83,44.71,192.73,44.75Z" transform="translate(-5.84 -4.94)"/><path class="cls-5" d="M192.45,44.74a.47.47,0,0,1,.17,0s0,0,0,0Z" transform="translate(-5.84 -4.94)"/><path class="cls-5" d="M155.23,47.46l0,0C155.11,47.56,155.15,47.54,155.23,47.46Z" transform="translate(-5.84 -4.94)"/><path class="cls-5" d="M179.85,48.4s0,0,0,0h0Z" transform="translate(-5.84 -4.94)"/><path class="cls-5" d="M179.48,48.72c.16-.52.25-.46.37-.35l-.12-1.2Z" transform="translate(-5.84 -4.94)"/><path class="cls-5" d="M165.05,48.87l.26.38c-.31.6-.54.38-.3.91,0-1.29,1-.09,1.06-1.4l.17.28c-.05,0-.06.07-.11.05.34.64.25-.94.68-.75a.36.36,0,0,1,.16.46l.33-.33c.1,0,.08.26,0,.23l.51-.09v0a4.68,4.68,0,0,1,.32-.67c.13.19-.07.14,0,.31l.29-.32c.11.34-.12.68-.32.63.27,1.34.24-.34.81.45l-.27.17c.17.76.38.49.69,1-.08-.25-.61-1.21-.3-1.54.08.11.2.16.36-.11,0,.48.17.36.37.34v.63c.22-.18.2-.5.33-.79.24.06.29.56.35,1,.39.1-.27-.8.19-.91.33.24.56,0,.95-.4.22.22,0,.39,0,.58l.2-.51c.05,0,0,.16,0,.24.17-.19,0-.64.28-.81.07-.7.55,1,.88.23.08.18,0,.39,0,.64a3.35,3.35,0,0,0,.76-1.09l.32.42c-.23-.48.07-1.05.33-1.51-.08-.23-.16-.44-.2-.53l.41-.34a1.07,1.07,0,0,1-.06.58l.08-.15a1.28,1.28,0,0,1,0,1l-.15-.39a3.87,3.87,0,0,0-.18,1.19.33.33,0,0,1,.13-.17.9.9,0,0,0,0,.26c0,.07.06-.08.13-.24l.09.71,0-.28.54.44c.39-.72.73-1.77,1.35-2.06a5,5,0,0,0,0,1.46c-.17-.65-.48.28-.8.15.17.07.13.36.09.46l.57-.6c0,.51.12.38.27.58-.11-1,.43-.66.66-1,0,.33,0,.66-.33.59.32.73.41-1.16.72-.54-.07,0-.11,0-.14.13a.26.26,0,0,1,.47.22h-.07c.46.11,1.4,0,1.47-.84,0,.11-.06,1-.09,1.16l.82-2.75c-.07.7.21,2.35-.17,2.75.11.1.24.21.47,0a2.32,2.32,0,0,1-.08-1.07,4.05,4.05,0,0,0,.54,1.06c-.11-.14,0-1.23.19-1.19,0,.16,0,1.06-.05,1.17l.44-1.06a2.33,2.33,0,0,0,.08,1.18c-.05-.2.38,0,.5-.1l-.19-.23c.5.14.49-1.47,1-1.42-.06.21-.15,1.31.1,1.43.12-.53.51-2.52.95-2.9l.08.3.34-.33a25.57,25.57,0,0,1-1.12,3c.19.23,0,.35.33.31a.35.35,0,0,1-.23.45l.65.14c0-.6.5-.62.47-1.12l-.7.65c0-.6.4-1.71.86-1.61.12.23-.08,1.05-.07,1.25.06-.21.43-.4.48-.26l-.2.32c.26.2.42-.79.73-.25.1,0,.31.72.33.38a12.12,12.12,0,0,1-.09-3.16,5.15,5.15,0,0,1,.68,1c.18.5-.26,1.21-.11,1.64a.89.89,0,0,1,.14-.41c.11.12,0,.47.2.39,0-.56.49,0,.11-.48.24-.16.25.11.53.08a1.92,1.92,0,0,1,.49-1.37,1.1,1.1,0,0,0,.07.4c.48,0,.74.29,1.2.28,0,.13.26.28.16.5.07-.09.13-.27.27-.28.27.43-.31.07-.11.6,0-.3.37-.42.57-.61-.07-.45-.47-.08-.66.11a1.81,1.81,0,0,1,.82-1.56c.37-.14.16.4.22.31.71.12.61-1,1.2-.55.23.37,0,.72.06,1-.31.14-.47-.24-.68-.23l.25.18c-.09.12-.3.22-.41.11.2.34,1.2.07,1.74.36.1-.12.27-.24.19-.38l-.18,0c-.15-.29.33-.38.11-.52.23-.19.49-.46.82-.29l.06.37c0-.11-.21-.23-.3-.12.13-.16.5.52.65,0l-.23-.26c.23-.18.52-.53.81-.39-.14-.35-.07,0-.28-.39.18.53-.74-.11-.45.47-.21-.51-.36-.23-.64-.7,0,.13.1.25-.15.16a.37.37,0,0,1,0,.11h0l0,0s0,0,0,0a.46.46,0,0,1,.13.21c-.12.28-.51.24-.64.39-.14-.07.06-.14,0-.29l-.19.22c0-.29-.39-.52-.05-.67l-.3,0c-.18-.19-.43-.28-.58-.17-.15-.08-.37.32-.24.08l-.48.16v-.08c-.48-.09-1,.48-1.52-.17a.62.62,0,0,1-.59.05l0-.31c-.2.1-.61-.36-.7,0-.22-.86-1-.26-1.35-.44v.42a1.34,1.34,0,0,0-.8.23l0,.38c-.26.31-.68-.3-1.1-.29,0-.15.14-.1.21,0-.5-.92-1,.61-1.51-.06-.11.14-.19.09-.27,0l0,0h0c-.05-.07-.1-.15-.16-.22a1,1,0,0,0,.14.23.69.69,0,0,0-.35.14l-.06-.44h0c-.12-.17-.1.21,0,.54a.73.73,0,0,0-.17.27c-.11-.73-.34.23-.48-.55-.09.38-.66.27-.72,1.07,0-.11,0-.16,0-.16-.14-.1-.29-.19-.42,0l-.06-.58-.31.78a1,1,0,0,1-.08-1c-.46.68-.38.25-.77.93l0-.38c-.14,0-.36.52-.45.2-.31-.73-1.54-.12-2.34-.81.15,1.15-.38-.52-.41.37-.05-.27-.16-.43,0-.66-.41.26-.61-.45-.89.31,0-.28.08-.4,0-.57,0,.06-.13.24-.17.08s.06-.23.12-.35c-.41,0-.46.88-.49,1.68-.21-.38-.32-.33-.47.2-.07-.26-.2-.54.06-.63-.14,0-.89-.39-.9.25,0-.16-.21,0-.25,0a1.52,1.52,0,0,0-.67,0l.08.11c-.12.77-.26.17-.52.26v-.08c-.59-.55-.25.27-.84-.36l0,.48c-.05,1-.52-.61-.86-.21l.12.27c-.18.35-.52-1.4-.7-1.52s.06-.15.12-.21c-.49-.6-.07.62-.43.77-.07-.33.09-.86-.16-.91-.12-.27-.71,1.09-1.05.46.08.25.15.51,0,.7s-.7-.95-.94-.14a.51.51,0,0,1,0-.2c-.2.21-.65.35-.77.79-.18-1.6-1.23.79-1.23-.68l-.61.09,0-.15c-.39-.08-.53.27-.67.62-.09-.1,0-.24,0-.31-.57-.28-.63-.21-1.11.51l-.05-.46c-.13.26-.82-.69-1.38-.14a.33.33,0,0,1,.06-.2c-.63.53-1.51-1.14-1.74.44l-.41.4c.53.11-.08.67.14.92-.21.09-.55-.46-.29-.54l0,.08c.1-.81-.67-.27-.65-.81-1.06.08-2.09-.29-3.08-.25l.11.55-.34,0c-.09-.12-.12-.42.12-.41-.13-.3-.41.28-.42.4-.48-.19.19-.64,0-.64l-.2,0,.05.06c-.17.23-.18.46-.48.45s-.09-.32-.17-.33,0,0-.11,0h-.43l.17.39c-.19.21-.41,0-.21.44-.29-.68-1.62-.16-1.8-.35a1,1,0,0,1-.87.27c.08.06.13.45-.15.41.1-.78-.53-.32-.76-.83.21.34-.81.15-.48.61-.24,0,0-.26-.2-.41-.56.29-1.25-.06-1.94.11,0,.07.1.18,0,.3l-.37-.33c-.14,0-.13.42-.38.2,0,0,.09.14,0,.17a7.37,7.37,0,0,0-2.09.12,16.56,16.56,0,0,1-2.1.13c.19,0,.06,0-.08.06.09,0,0,0,0,.08h-.58c-.11.06-.63.09-.69.12l.19,0c-.25,0,.34,0,.31.13.27-.07.72.2,1.17.11.1,0-.08,0,0,.08a.77.77,0,0,1,.51,0l0,0a10.44,10.44,0,0,1,1.83.35l-.06-.14a.56.56,0,0,1,.29.13c.2-.2-.48-.07-.3-.28.23.32,1.22.09,1.38.5.26,0-.08-.21.18-.18l.07.12.07-.14a.34.34,0,0,1,.27.3.88.88,0,0,0-.16,0c.22.17.64,0,.71.09l-.25-.11a9,9,0,0,0,2.32,0l-.06-.13c.54-.18.43.17,1,.11l0,0a.56.56,0,0,1,.44-.15c-.15.15.28.33.08.48.59-.22.29-.18.68-.67l.09.23c.13-.2.14-.31.43-.36-.24.19.19.37-.08.62.62.58.92-.48,1.2.33.29-.68-.53-.42-.37-.55-.14-.23.23-.51.42-.44s.34.92.84.94c-.05,0-.06,0-.11,0,.19.2.37-.23.6.09.12-.44.29,0,.33-.53l-.46.11c.26-.13.5-.81.93-.47a1,1,0,0,1-.25.36c.13.18.24-.11.37.08,0,.59-.55.1-.83.53.13.25.52-.39.39.23.2-.8.48.15.82-.47l0,.37c0-.06.16-.22.26-.21l-.18.47c.28-.39.53.39.79.19-.55,0-.12-.46-.35-.75.67-.47.38,1,1.14.89-.1,0-.39-.26-.23-.43a1.07,1.07,0,0,1,.43.46c.5,0-.08-.41.13-.63.17.48.25-.18.47-.33v.4c.57.3.15-.83.66-.5l-.21.56.26-.13,0,.46c.29-.33.38-.24.67-.09-.07-.3,0-.75.29-.76.17.26-.1.4.26.35-.08.26-.17.59-.33.19,0,.14-.08.26-.09.4.18.29.46.09.59.09a.21.21,0,0,1-.14-.11l.52-.56a.4.4,0,0,1,0,.41c.11,0,.18-.23.34-.26,0,.34,0,.71-.25.86l.49-.36c0,.15.25.43.19.56.27.23.67-.66,1-.36a.3.3,0,0,1,.13-.19c.34.1.64.56,1,.07l.23.68c.32-.14-.31-.85.22-1.08.37-.2.14.57.27.76.18-.33.51-1,.85-.45C165.25,48.92,165.16,48.82,165.05,48.87Zm3.91-.23c-.08.1-.23.41-.28.13C168.76,48.22,168.83,48.49,169,48.64Zm5.94-1.14c-.05.16-.14.08-.24-.1C174.73,47.36,174.81,47.38,174.9,47.5Zm16.56-2.61v0C191.28,44.76,191.34,44.82,191.46,44.89Zm.35.17a.11.11,0,0,0,0-.13c0,.08-.1.08-.19,0S191.71,45.12,191.81,45.06Zm-37.69,0,.07.08C154,45.3,154.08,45.21,154.12,45.11Z" transform="translate(-5.84 -4.94)"/><path class="cls-5" d="M174.23,48.16a1.09,1.09,0,0,1,0-.26A.27.27,0,0,0,174.23,48.16Z" transform="translate(-5.84 -4.94)"/><path class="cls-5" d="M162.62,49h0s0,.05,0,.08Z" transform="translate(-5.84 -4.94)"/><path class="cls-5" d="M186.38,48.12a.37.37,0,0,1-.14-.2A.16.16,0,0,0,186.38,48.12Z" transform="translate(-5.84 -4.94)"/><path class="cls-5" d="M193.67,44.73l-.22,0c.11,0,.15.07.2.12S193.6,44.72,193.67,44.73Z" transform="translate(-5.84 -4.94)"/><path class="cls-5" d="M195.62,46.5s.07,0,.11,0v-.12C195.58,46.36,195.48,46.45,195.62,46.5Z" transform="translate(-5.84 -4.94)"/><path class="cls-5" d="M193.88,45.69c0,.24.16.17.32.13h0C194.22,45.5,194.05,45.59,193.88,45.69Z" transform="translate(-5.84 -4.94)"/><path class="cls-5" d="M194.23,45.82a.26.26,0,0,1,.15,0C194.4,45.69,194.32,45.79,194.23,45.82Z" transform="translate(-5.84 -4.94)"/><path class="cls-5" d="M192.26,44.92c.07.07,0-.33.09-.22C192.43,44.37,191.85,45.06,192.26,44.92Z" transform="translate(-5.84 -4.94)"/><polygon class="cls-5" points="188.17 41.54 188.11 41.25 188.02 41.48 188.17 41.54"/><path class="cls-5" d="M192.76,46.24l.26.09a.09.09,0,0,1,.06-.1C192.93,46.22,192.76,46.15,192.76,46.24Z" transform="translate(-5.84 -4.94)"/><path class="cls-5" d="M193.08,46.23a.25.25,0,0,0,.21,0A.46.46,0,0,0,193.08,46.23Z" transform="translate(-5.84 -4.94)"/><polygon class="cls-5" points="187.82 41.63 187.75 41.57 187.57 41.55 187.82 41.63"/><path class="cls-5" d="M190.06,46.14l-.27.1c0,.13,0,.2.14.15S190.1,46.26,190.06,46.14Z" transform="translate(-5.84 -4.94)"/><path class="cls-5" d="M190.89,47.11a.63.63,0,0,1-.12-.26v.44Z" transform="translate(-5.84 -4.94)"/><path class="cls-5" d="M190.09,47.24c0,.13-.4.38-.05.34C190.07,47.45,190.34,47.34,190.09,47.24Z" transform="translate(-5.84 -4.94)"/><polygon class="cls-5" points="180.11 41.77 180.18 41.76 180.17 40.9 180.11 41.77"/><path class="cls-5" d="M182.3,49c.33.21.08-.58.38-.31.07-.23-.24-.22-.17-.41C182.32,48.47,182.21,48.35,182.3,49Z" transform="translate(-5.84 -4.94)"/><path class="cls-5" d="M182.51,48.24a.56.56,0,0,0,.1-.15A.77.77,0,0,0,182.51,48.24Z" transform="translate(-5.84 -4.94)"/><polygon class="cls-5" points="135.51 41.42 135.3 41.46 135.43 41.44 135.51 41.42"/><path class="cls-5" d="M141,46.45h0l-.13,0Z" transform="translate(-5.84 -4.94)"/><path class="cls-5" d="M169.54,50l0-.15c0-.17-.08-.19-.18-.21Z" transform="translate(-5.84 -4.94)"/><polygon class="cls-5" points="160.86 44.47 160.91 44.49 160.82 43.91 160.86 44.47"/><path class="cls-5" d="M164.32,50c.1,0,.21-.09.31-.06C164.42,50.06,164.3,49.34,164.32,50Z" transform="translate(-5.84 -4.94)"/></svg>