<?xml version="1.0" encoding="utf-8"?>
<!-- Generator: Adobe Illustrator 25.3.1, SVG Export Plug-In . SVG Version: 6.00 Build 0)  -->
<svg version="1.1" id="Layer_1" xmlns="http://www.w3.org/2000/svg" xmlns:xlink="http://www.w3.org/1999/xlink" x="0px" y="0px"
	 viewBox="0 0 58.55 33.55" style="enable-background:new 0 0 58.55 33.55;" xml:space="preserve">
<style type="text/css">
	.st0{fill:none;stroke:#FFFFFF;stroke-miterlimit:10;}
	.st1{fill:#164955;}
	.st2{fill:#FFFFFF;}
	.st3{fill:none;stroke:#FFFFFF;stroke-width:2;stroke-miterlimit:10;}
	.st4{fill:none;stroke:#FFFFFF;stroke-width:3;stroke-miterlimit:10;}
	.st5{fill:#30323E;}
	.st6{fill:#FFFFFF;stroke:#FFFFFF;stroke-miterlimit:10;}
	.st7{fill:#FFFFFF;stroke:#164955;stroke-miterlimit:10;}
	.st8{fill:#174955;}
</style>
<path class="st8" d="M53.93,25.54c0.16,1.85-0.12,3.76-0.44,5.56c-0.23,1.27-0.85,2.47-2.34,2.38c-5.3-0.3-10.65-0.29-15.89-1.27
	c-5.65-1.06-11.08-3.43-15.35-7.33c-2.45-2.23-4.7-5.05-5.78-8.21c-1.07-3.14-1.73-6.43-1.96-9.74c-0.1-1.54-0.45-3.07,0.81-4.45
	c1.5-1.64,4.75-1.8,6.83-2.11c1.74-0.26,4.95-0.52,5.25,1.9c0,0,0.88,7.24,0.88,7.24c0.5,1.76-1.33,3.53-3.24,4.18
	c-1.14,0.38-1.57,1.76-0.92,2.77c3.14,4.87,9.45,8.44,16.96,9.25c1.81,0.2,1.95-1.93,2.28-3.19c0.57-2.13,3.16-1.33,4.81-1.23
	c1.24,0.07,2.47,0.14,3.71,0.21c1.01,0.06,2.14-0.04,2.96,0.64c0.78,0.65,1.2,1.68,1.35,2.66C53.88,25.05,53.91,25.3,53.93,25.54z"
	/>
</svg>
