<?xml version="1.0" encoding="utf-8"?>
<!-- Generator: Adobe Illustrator 25.3.1, SVG Export Plug-In . SVG Version: 6.00 Build 0)  -->
<svg version="1.1" id="Layer_1" xmlns="http://www.w3.org/2000/svg" xmlns:xlink="http://www.w3.org/1999/xlink" x="0px" y="0px"
	 viewBox="0 0 81.68 82.79" style="enable-background:new 0 0 81.68 82.79;" xml:space="preserve">
<style type="text/css">
	.st0{fill:none;stroke:#FFFFFF;stroke-miterlimit:10;}
	.st1{fill:#164955;stroke:#FFFFFF;stroke-width:2;stroke-miterlimit:10;}
	.st2{fill:none;stroke:#FFFFFF;stroke-width:2;stroke-miterlimit:10;}
	.st3{fill:#FFFFFF;}
	.st4{fill:#164955;}
	.st5{fill:none;stroke:#FFFFFF;stroke-width:3;stroke-miterlimit:10;}
	.st6{fill:#30323E;}
	.st7{fill:#FFFFFF;stroke:#FFFFFF;stroke-miterlimit:10;}
	.st8{fill:#FFFFFF;stroke:#164955;stroke-miterlimit:10;}
	.st9{fill:#164955;stroke:#164955;stroke-width:0.75;stroke-miterlimit:10;}
</style>
<path class="st0" d="M40.35,79.88c-21.78,0-39.5-17.72-39.5-39.5c0-21.78,17.72-39.5,39.5-39.5s39.5,17.72,39.5,39.5
	C79.85,62.16,62.13,79.88,40.35,79.88z M40.35,1.88c-21.23,0-38.5,17.27-38.5,38.5s17.27,38.5,38.5,38.5s38.5-17.27,38.5-38.5
	S61.58,1.88,40.35,1.88z"/>
<rect x="12.66" y="24.67" class="st1" width="54.94" height="31.41"/>
<polygon class="st1" points="40.13,37.5 12.66,56.79 67.6,56.79 "/>
<polygon class="st1" points="40.13,43.96 67.6,24.67 12.66,24.67 "/>
<line class="st5" x1="10.18" y1="22.84" x2="10.18" y2="59.07"/>
<line class="st5" x1="70.18" y1="21.84" x2="70.18" y2="58.07"/>
</svg>
