<?xml version="1.0" encoding="utf-8"?>
<!-- Generator: Adobe Illustrator 25.3.1, SVG Export Plug-In . SVG Version: 6.00 Build 0)  -->
<svg version="1.1" id="Layer_1" xmlns="http://www.w3.org/2000/svg" xmlns:xlink="http://www.w3.org/1999/xlink" x="0px" y="0px"
	 viewBox="0 0 83.5 66.5" style="enable-background:new 0 0 83.5 66.5;" xml:space="preserve">
<style type="text/css">
	.st0{fill:#FFFFFF;}
</style>
<g>
	<path class="st0" d="M43.6,42.7c-0.1,0.2-0.2,0.3-0.3,0.5l-0.2,0.2l0,0l0,0l0,0l-0.2,0.2l-0.5,0.4l-1,0.9c-0.6,0.6-1.3,1.2-1.9,1.8
		c-1.3,1.2-2.6,2.3-4,3.4c-1.3,1.1-2.7,2.2-4.1,3.2c-0.7,0.5-1.4,1-2.1,1.6l-1,0.7l-1,0.8L25,58c-0.7,0.5-1.4,1-2.2,1.5
		c-0.3,0.2-0.7,0.1-0.9-0.2c-0.2-0.2-0.1-0.6,0.1-0.8l0,0c0.6-0.6,1.1-1.3,1.7-1.9l1.7-2l0.8-1l0.9-1l1.6-1.9
		c1.1-1.3,2.2-2.6,3.2-3.9c1.1-1.3,2.1-2.6,3.1-4l1.5-2l0-0.1l0.7,0.6l0.5,0.4l0.1,0.1v0l0,0c-0.1-0.1-0.1-0.1-0.2-0.2
		c-0.1-0.1-0.2-0.3-0.2-0.4c-0.2-0.6-0.2-1.1,0.1-1.6l0.1-0.2l0.2-0.3l0,0v0c0,0,0,0,0,0c0,0-0.1,0.1-0.1,0.1c0,0.1-0.1,0.1-0.1,0.2
		c0,0.1-0.1,0.1-0.1,0.2l-0.3,0.3l-0.7,1l-1.3-1l-2.6-2.1c-0.3,0.3-0.6,0.5-0.9,0.8c-1.3,1.2-2.6,2.5-3.9,3.8l-1.9,1.9l-2,1.9
		c-1.3,1.3-2.6,2.5-4,3.8c-1.4,1.2-2.8,2.5-4.3,3.7c-0.4,0.3-0.7,0.6-1.1,0.8l-1.1,0.8l-2.2,1.6c-3,2.1-6,4.2-9.2,6l0,0
		c-0.2,0.1-0.5,0.1-0.6-0.2c-0.1-0.2-0.1-0.4,0.1-0.5l1.9-2l1.9-2l3.7-4l3.7-4c1.2-1.3,2.3-2.6,3.4-4.1c2.2-2.8,4.4-5.7,6.7-8.6
		c1.1-1.4,2.3-2.9,3.4-4.3c0.4-0.5,0.9-1.1,1.4-1.6c-0.4-1.8,0.5-3.6,2.2-4.5c1.2-0.6,2.5-0.5,3.6,0c1.6,0.8,2.8,2,3.9,3.3l3.4,3.8
		l1.7,1.9l0.4,0.5l0.1,0.1l0.2,0.2c0.1,0.1,0.3,0.3,0.4,0.5c0.2,0.3,0.4,0.7,0.6,1C44.5,39.8,44.4,41.4,43.6,42.7z"/>
	<path class="st0" d="M53.5,20.9c0.9,0,1.7,0,2.5,0.2c0.8,0.1,1.5,0.3,2.3,0.5s1.4,0.4,2.1,0.7c0.7,0.3,1.3,0.6,1.9,1.1
		c0.3,0.2,0.6,0.5,0.9,0.7c0.3,0.3,0.6,0.5,0.9,0.8c0.2,0.1,0.3,0.3,0.5,0.4c0.2,0.1,0.3,0.2,0.4,0.3c0.3,0.2,0.5,0.4,0.6,0.4
		c0.1,0.1,0.1,0.1,0.2,0.1c0,0,0.1,0,0.1,0.1c0.1,0,0.3,0,0.5,0c0.4-0.1,1.1-0.5,1.6-1c1.2-0.9,2.4-1.9,3.5-3
		c1.1-1.1,2.3-2.1,3.4-3.2c1.1-1.1,2.2-2.2,3.3-3.3c1.1-1.1,2.2-2.3,3.2-3.5c0.1-0.2,0.4-0.2,0.6,0c0.1,0.1,0.2,0.3,0.1,0.4l0,0.1
		c-0.6,1.6-1.2,3.1-2,4.5c-0.4,0.7-0.7,1.5-1.1,2.2c-0.4,0.7-0.8,1.4-1.2,2.1c-0.4,0.7-0.8,1.4-1.3,2.1c-0.4,0.7-0.9,1.4-1.3,2
		c-0.9,1.4-1.9,2.7-3.1,3.9c-0.3,0.3-0.6,0.6-1,0.9c-0.4,0.3-0.9,0.7-1.5,1c-0.6,0.3-1.4,0.7-2.3,0.9c-0.4,0.1-0.9,0.2-1.4,0.2
		c-0.4,0-0.9,0-1.2-0.1c-0.8-0.1-1.3-0.3-1.8-0.5c-0.2-0.1-0.4-0.2-0.6-0.3l-0.6-0.3c-0.4-0.2-0.8-0.3-1.1-0.5
		c-0.4-0.2-0.7-0.4-1.1-0.6c-0.4-0.2-0.7-0.4-1.1-0.6c-0.4-0.2-0.7-0.4-1.1-0.7c-0.7-0.5-1.4-1-2-1.5c-1.3-1-2.6-2.1-3.7-3.4
		c-0.7-0.8-0.7-2,0.1-2.7c0.3-0.3,0.8-0.5,1.2-0.5L53.5,20.9z"/>
	<path class="st0" d="M47.3,20.5c-0.9,0-1.7,0-2.5-0.2c-0.8-0.1-1.6-0.3-2.4-0.5c-0.7-0.2-1.3-0.4-2-0.7c-0.7-0.3-1.3-0.6-1.9-1.1
		c-0.3-0.2-0.6-0.5-0.9-0.7c-0.3-0.3-0.6-0.5-0.9-0.8c-0.2-0.1-0.3-0.3-0.5-0.4c-0.2-0.1-0.3-0.2-0.4-0.3c-0.3-0.2-0.5-0.4-0.6-0.4
		c-0.1-0.1-0.1-0.1-0.2-0.1c0,0-0.1,0-0.1-0.1c-0.1,0-0.3,0-0.5,0c-0.4,0.1-1.1,0.5-1.7,1c-0.6,0.4-1.2,0.9-1.8,1.4
		c-0.6,0.5-1.2,1-1.7,1.6c-1.1,1.1-2.3,2.1-3.4,3.2c-1.1,1.1-2.2,2.2-3.3,3.3c-1.1,1.1-2.1,2.3-3.2,3.5c-0.2,0.2-0.4,0.2-0.6,0
		c-0.1-0.1-0.2-0.3-0.1-0.5l0-0.1c0.6-1.6,1.2-3.1,2-4.5c0.4-0.7,0.7-1.5,1.1-2.2c0.4-0.7,0.8-1.4,1.2-2.1l1.3-2.1
		c0.4-0.7,0.9-1.4,1.3-2c0.9-1.4,1.9-2.7,3.1-3.9c0.3-0.3,0.6-0.6,1-0.9c0.4-0.3,0.9-0.7,1.5-1c0.6-0.3,1.4-0.7,2.3-0.9
		c0.4-0.1,0.9-0.2,1.4-0.2c0.4,0,0.9,0,1.2,0.1c0.8,0.1,1.3,0.3,1.8,0.5c0.2,0.1,0.4,0.2,0.6,0.3l0.6,0.3c0.4,0.2,0.8,0.3,1.1,0.5
		s0.7,0.4,1.1,0.6c0.4,0.2,0.7,0.4,1.1,0.6c0.4,0.2,0.7,0.4,1.1,0.7c0.7,0.5,1.4,1,2,1.5c1.3,1,2.6,2.1,3.7,3.4
		c0.7,0.8,0.7,2-0.1,2.7c-0.3,0.3-0.8,0.5-1.2,0.5L47.3,20.5z"/>
	<path class="st0" d="M66.5,10.3c0,0.1,0,0.2,0,0.3c-0.2,3.4-2.6,6.4-6,7c-3.1,0.5-6.2-0.8-7.8-3.5c-1.6-2.7-1.3-6.3,0.7-8.7
		c1.9-2.3,5.3-3.2,8.2-2.2c2.9,1,4.8,3.7,5,6.8C66.5,10.1,66.5,10.2,66.5,10.3z"/>
</g>
</svg>
