<?xml version="1.0" encoding="utf-8"?>
<!-- Generator: Adobe Illustrator 25.3.1, SVG Export Plug-In . SVG Version: 6.00 Build 0)  -->
<svg version="1.1" id="Layer_1" xmlns="http://www.w3.org/2000/svg" xmlns:xlink="http://www.w3.org/1999/xlink" x="0px" y="0px"
	 viewBox="0 0 83.5 81.81" style="enable-background:new 0 0 83.5 81.81;" xml:space="preserve">
<style type="text/css">
	.st0{fill:none;stroke:#FFFFFF;stroke-miterlimit:10;}
	.st1{fill:#164955;stroke:#FFFFFF;stroke-width:2;stroke-miterlimit:10;}
	.st2{fill:none;stroke:#FFFFFF;stroke-width:2;stroke-miterlimit:10;}
	.st3{fill:#FFFFFF;}
	.st4{fill:#164955;}
	.st5{fill:none;stroke:#FFFFFF;stroke-width:3;stroke-miterlimit:10;}
	.st6{fill:#30323E;}
	.st7{fill:#FFFFFF;stroke:#FFFFFF;stroke-miterlimit:10;}
	.st8{fill:#FFFFFF;stroke:#164955;stroke-miterlimit:10;}
	.st9{fill:#164955;stroke:#164955;stroke-width:0.75;stroke-miterlimit:10;}
</style>
<path class="st0" d="M42.19,80.75c-21.78,0-39.5-17.72-39.5-39.5s17.72-39.5,39.5-39.5s39.5,17.72,39.5,39.5
	S63.97,80.75,42.19,80.75z M42.19,2.75c-21.23,0-38.5,17.27-38.5,38.5s17.27,38.5,38.5,38.5c21.23,0,38.5-17.27,38.5-38.5
	S63.42,2.75,42.19,2.75z"/>
<g>
	<path class="st3" d="M44.6,47.89c-0.07,0.11-0.15,0.23-0.23,0.33l-0.13,0.15l-0.03,0.03l-0.01,0.01l-0.02,0.02l-0.17,0.16
		l-0.34,0.32l-0.69,0.64c-0.46,0.43-0.92,0.85-1.39,1.27c-0.94,0.83-1.89,1.64-2.86,2.43c-0.96,0.79-1.93,1.56-2.92,2.32
		c-0.49,0.38-1,0.75-1.5,1.11l-0.75,0.53l-0.74,0.54l-1.49,1.09c-0.5,0.36-1.02,0.72-1.54,1.06c-0.21,0.14-0.48,0.08-0.62-0.13
		c-0.11-0.17-0.09-0.4,0.04-0.54l0,0c0.4-0.46,0.79-0.92,1.19-1.39l1.19-1.41l0.6-0.71l0.61-0.7l1.18-1.38
		c0.78-0.92,1.55-1.87,2.31-2.81c0.76-0.94,1.51-1.89,2.23-2.85l1.08-1.44l0.03-0.04l0.52,0.42l0.36,0.28l0.05,0.04l0-0.01
		l-0.03-0.03c-0.04-0.05-0.08-0.09-0.11-0.14c-0.07-0.1-0.13-0.21-0.17-0.32c-0.15-0.4-0.11-0.82,0.07-1.17l0.08-0.11l0.13-0.18
		l0.02-0.02l0-0.01c0,0-0.01,0-0.01,0.01c-0.02,0.02-0.04,0.04-0.05,0.06c-0.03,0.04-0.07,0.08-0.1,0.13
		c-0.03,0.04-0.05,0.08-0.07,0.13l-0.18,0.25l-0.5,0.69l-0.91-0.73l-1.85-1.49c-0.19,0.2-0.4,0.39-0.61,0.58
		c-0.93,0.89-1.86,1.78-2.77,2.69l-1.38,1.36l-1.41,1.35c-0.94,0.9-1.88,1.81-2.86,2.71c-0.99,0.89-2.02,1.78-3.11,2.62
		c-0.28,0.22-0.53,0.4-0.8,0.59l-0.8,0.57l-1.6,1.14c-2.15,1.5-4.32,2.98-6.59,4.32l-0.01,0.01c-0.15,0.09-0.34,0.04-0.43-0.11
		c-0.07-0.12-0.05-0.27,0.04-0.37l1.33-1.44l1.33-1.42l2.64-2.87l2.63-2.86c0.84-0.92,1.63-1.89,2.41-2.9c1.58-2,3.14-4.1,4.77-6.14
		c0.81-1.03,1.63-2.04,2.46-3.06c0.32-0.39,0.63-0.79,0.99-1.16c-0.28-1.27,0.33-2.61,1.55-3.22c0.84-0.42,1.79-0.39,2.57-0.01
		c1.15,0.56,2.02,1.42,2.82,2.35l2.45,2.75l1.22,1.37l0.3,0.35l0.04,0.04l0.12,0.12c0.09,0.1,0.18,0.21,0.27,0.33
		c0.17,0.23,0.3,0.48,0.41,0.74C45.29,45.78,45.18,46.97,44.6,47.89z"/>
	<path class="st3" d="M51.7,32.26c0.66-0.03,1.25,0.03,1.82,0.12c0.56,0.09,1.1,0.21,1.62,0.36c0.52,0.15,1.02,0.32,1.51,0.52
		c0.49,0.19,0.95,0.44,1.39,0.76c0.22,0.16,0.43,0.34,0.64,0.52c0.21,0.19,0.42,0.37,0.64,0.55c0.11,0.09,0.22,0.18,0.33,0.26
		c0.11,0.09,0.22,0.17,0.31,0.24c0.19,0.13,0.33,0.26,0.44,0.31c0.05,0.04,0.09,0.06,0.13,0.07c0.03,0.02,0.05,0.03,0.08,0.05
		c0.06,0.03,0.18,0.03,0.34-0.01c0.31-0.09,0.76-0.35,1.18-0.69c0.85-0.66,1.71-1.38,2.52-2.14c0.82-0.76,1.63-1.53,2.43-2.31
		c0.8-0.78,1.59-1.58,2.38-2.39c0.78-0.81,1.54-1.64,2.28-2.48c0.1-0.12,0.28-0.13,0.4-0.03c0.09,0.08,0.12,0.2,0.08,0.31
		l-0.02,0.07c-0.4,1.12-0.89,2.19-1.41,3.23c-0.26,0.52-0.52,1.04-0.8,1.55c-0.28,0.51-0.55,1.03-0.85,1.52c-0.3,0.5-0.6,1-0.9,1.49
		c-0.31,0.49-0.63,0.97-0.96,1.46c-0.65,0.98-1.34,1.93-2.25,2.77c-0.23,0.21-0.45,0.42-0.75,0.66c-0.29,0.24-0.65,0.5-1.09,0.75
		c-0.44,0.25-0.98,0.5-1.63,0.64c-0.32,0.07-0.66,0.11-0.98,0.13c-0.32,0.01-0.62,0-0.89-0.04c-0.54-0.09-0.96-0.25-1.3-0.38
		c-0.17-0.07-0.32-0.13-0.45-0.19l-0.41-0.18c-0.27-0.13-0.54-0.25-0.81-0.38c-0.27-0.13-0.53-0.28-0.8-0.41
		c-0.26-0.14-0.52-0.29-0.78-0.45c-0.26-0.16-0.51-0.31-0.76-0.48c-0.5-0.34-0.99-0.68-1.46-1.05c-0.95-0.74-1.85-1.52-2.67-2.4
		c-0.52-0.56-0.48-1.43,0.07-1.94c0.25-0.23,0.56-0.35,0.87-0.37L51.7,32.26z"/>
	<path class="st3" d="M47.23,31.98c-0.66,0.03-1.25-0.03-1.82-0.12c-0.56-0.09-1.17-0.21-1.69-0.36c-0.52-0.15-0.95-0.32-1.44-0.52
		c-0.49-0.19-0.95-0.44-1.39-0.76c-0.22-0.16-0.43-0.34-0.64-0.52c-0.21-0.19-0.42-0.37-0.64-0.55c-0.11-0.09-0.22-0.18-0.33-0.26
		c-0.11-0.09-0.22-0.17-0.31-0.24c-0.19-0.13-0.33-0.26-0.44-0.31c-0.05-0.04-0.09-0.06-0.13-0.07c-0.03-0.02-0.05-0.03-0.08-0.05
		c-0.06-0.03-0.18-0.03-0.34,0.01c-0.31,0.09-0.76,0.35-1.19,0.69c-0.43,0.32-0.86,0.67-1.27,1.03c-0.42,0.36-0.84,0.73-1.24,1.11
		c-0.82,0.76-1.63,1.53-2.43,2.32c-0.8,0.79-1.59,1.58-2.37,2.39c-0.78,0.81-1.53,1.64-2.27,2.48c-0.11,0.13-0.3,0.14-0.43,0.03
		c-0.1-0.08-0.13-0.22-0.09-0.33l0.03-0.07c0.4-1.12,0.89-2.19,1.41-3.23c0.26-0.52,0.52-1.04,0.81-1.55
		c0.28-0.51,0.55-1.02,0.86-1.52l0.9-1.49c0.31-0.49,0.64-0.97,0.96-1.46c0.65-0.98,1.34-1.92,2.25-2.77
		c0.23-0.21,0.45-0.42,0.75-0.66c0.29-0.24,0.65-0.5,1.09-0.75c0.44-0.25,0.98-0.5,1.63-0.64c0.32-0.07,0.66-0.11,0.98-0.13
		c0.32-0.01,0.62,0,0.89,0.04c0.54,0.09,0.96,0.25,1.3,0.38c0.17,0.07,0.32,0.13,0.45,0.19l0.41,0.18c0.27,0.13,0.54,0.25,0.81,0.38
		c0.27,0.13,0.53,0.28,0.8,0.41c0.26,0.14,0.52,0.29,0.78,0.45c0.26,0.16,0.51,0.31,0.76,0.48c0.5,0.34,0.99,0.68,1.46,1.05
		c0.95,0.74,1.85,1.52,2.67,2.4c0.52,0.56,0.48,1.43-0.07,1.94c-0.25,0.23-0.56,0.35-0.87,0.37L47.23,31.98z"/>
	<path class="st3" d="M60.97,24.67c0,0.07,0,0.14-0.01,0.21c-0.16,2.42-1.85,4.59-4.31,5.03c-2.19,0.39-4.42-0.57-5.59-2.48
		c-1.18-1.94-0.94-4.48,0.51-6.21c1.39-1.66,3.79-2.32,5.83-1.58c2.09,0.75,3.43,2.65,3.56,4.83
		C60.97,24.54,60.97,24.61,60.97,24.67z"/>
</g>
</svg>
