<?xml version="1.0" encoding="utf-8"?>
<!-- Generator: Adobe Illustrator 25.3.1, SVG Export Plug-In . SVG Version: 6.00 Build 0)  -->
<svg version="1.1" id="Layer_1" xmlns="http://www.w3.org/2000/svg" xmlns:xlink="http://www.w3.org/1999/xlink" x="0px" y="0px"
	 viewBox="0 0 58.5 33.5" style="enable-background:new 0 0 58.5 33.5;" xml:space="preserve">
<style type="text/css">
	.st0{fill:#FFFFFF;}
</style>
<path class="st0" d="M53.9,25.5c0.2,1.9-0.1,3.8-0.4,5.6c-0.2,1.3-0.8,2.5-2.3,2.4c-5.3-0.3-10.7-0.3-15.9-1.3
	c-5.6-1.1-11.1-3.4-15.4-7.3c-2.5-2.2-4.7-5.1-5.8-8.2c-1.1-3.1-1.7-6.4-2-9.7c-0.1-1.5-0.4-3.1,0.8-4.4c1.5-1.6,4.8-1.8,6.8-2.1
	c1.7-0.3,5-0.5,5.2,1.9l0.9,7.2c0.5,1.8-1.3,3.5-3.2,4.2c-1.1,0.4-1.6,1.8-0.9,2.8c3.1,4.9,9.4,8.4,17,9.2c1.8,0.2,2-1.9,2.3-3.2
	c0.6-2.1,3.2-1.3,4.8-1.2c1.2,0.1,2.5,0.1,3.7,0.2c1,0.1,2.1,0,3,0.6c0.8,0.6,1.2,1.7,1.3,2.7C53.9,25,53.9,25.3,53.9,25.5z"/>
</svg>
