<?xml version="1.0" encoding="utf-8"?>
<!-- Generator: Adobe Illustrator 25.3.1, SVG Export Plug-In . SVG Version: 6.00 Build 0)  -->
<svg version="1.1" id="Layer_1" xmlns="http://www.w3.org/2000/svg" xmlns:xlink="http://www.w3.org/1999/xlink" x="0px" y="0px"
	 viewBox="0 0 83.01 82.49" style="enable-background:new 0 0 83.01 82.49;" xml:space="preserve">
<style type="text/css">
	.st0{fill:none;stroke:#FFFFFF;stroke-miterlimit:10;}
	.st1{fill:#164955;stroke:#FFFFFF;stroke-width:2;stroke-miterlimit:10;}
	.st2{fill:none;stroke:#FFFFFF;stroke-width:2;stroke-miterlimit:10;}
	.st3{fill:#FFFFFF;}
	.st4{fill:#164955;}
	.st5{fill:none;stroke:#FFFFFF;stroke-width:3;stroke-miterlimit:10;}
	.st6{fill:#30323E;}
	.st7{fill:#FFFFFF;stroke:#FFFFFF;stroke-miterlimit:10;}
	.st8{fill:#FFFFFF;stroke:#164955;stroke-miterlimit:10;}
	.st9{fill:#164955;stroke:#164955;stroke-width:0.75;stroke-miterlimit:10;}
</style>
<g>
	<circle class="st0" cx="41.07" cy="41.19" r="39"/>
	<path class="st0" d="M41.07,80.69c-21.78,0-39.5-17.72-39.5-39.5s17.72-39.5,39.5-39.5s39.5,17.72,39.5,39.5
		S62.85,80.69,41.07,80.69z M41.07,2.69c-21.23,0-38.5,17.27-38.5,38.5s17.27,38.5,38.5,38.5s38.5-17.27,38.5-38.5
		S62.3,2.69,41.07,2.69z"/>
</g>
<path class="st6" d="M57.21,17.14v2h1.48v-2H57.21z M24.39,19.14h0.52v-2h-0.52V19.14z"/>
<path class="st7" d="M53.21,10.58h-24.3c-3.31,0-6,2.69-6,6v51.23c0,3.31,2.69,6,6,6h24.3c3.31,0,6-2.69,6-6V16.58
	C59.21,13.27,56.52,10.58,53.21,10.58z M57.21,62.08h-32.3V19.14h32.3V62.08z M57.21,17.14h-0.2c0.07-0.03,0.14-0.08,0.2-0.12V17.14
	z"/>
<line class="st8" x1="35.5" y1="14.33" x2="47.5" y2="14.21"/>
<circle class="st9" cx="41.5" cy="68.22" r="1.47"/>
<rect x="24.91" y="19.14" class="st4" width="32.3" height="42.94"/>
</svg>
