<?xml version="1.0" encoding="utf-8"?>
<!-- Generator: Adobe Illustrator 25.3.1, SVG Export Plug-In . SVG Version: 6.00 Build 0)  -->
<svg version="1.1" id="Layer_1" xmlns="http://www.w3.org/2000/svg" xmlns:xlink="http://www.w3.org/1999/xlink" x="0px" y="0px"
	 viewBox="0 0 50.5 82.2" style="enable-background:new 0 0 50.5 82.2;" xml:space="preserve">
<style type="text/css">
	.st0{fill:none;stroke:#FFFFFF;stroke-miterlimit:10;}
	.st1{fill:#FFFFFF;}
</style>
<line class="st0" x1="40.2" y1="55.9" x2="40.2" y2="55.9"/>
<path class="st1" d="M25.3,1.3C12.4,1.3,1.9,11.8,1.9,24.7c0,9.1,4.7,17.5,8.6,25.4c2.2,4.5,4.5,9,6.7,13.4
	c2.9,5.8,5.8,11.7,8.7,17.5c-0.1-0.3,1.1-2.1,1.2-2.4C31,70.9,34.9,63,38.9,55.2c2.7-5.4,5.4-10.6,7.3-16c1.6-4.5,2.6-9.2,2.6-14.4
	C48.8,11.8,38.2,1.3,25.3,1.3z M25.3,39.1c-8.3,0-15-6.7-15-15c0-8.3,6.7-15,15-15c8.3,0,15,6.7,15,15
	C40.3,32.3,33.5,39.1,25.3,39.1z"/>
</svg>
