<?xml version="1.0" encoding="utf-8"?>
<!-- Generator: Adobe Illustrator 25.3.1, SVG Export Plug-In . SVG Version: 6.00 Build 0)  -->
<svg version="1.1" id="Layer_1" xmlns="http://www.w3.org/2000/svg" xmlns:xlink="http://www.w3.org/1999/xlink" x="0px" y="0px"
	 viewBox="0 0 58.55 33.55" style="enable-background:new 0 0 58.55 33.55;" xml:space="preserve">
<style type="text/css">
	.st0{fill:none;stroke:#FFFFFF;stroke-miterlimit:10;}
	.st1{fill:#164955;}
	.st2{fill:#FFFFFF;}
	.st3{fill:none;stroke:#FFFFFF;stroke-width:2;stroke-miterlimit:10;}
	.st4{fill:none;stroke:#FFFFFF;stroke-width:3;stroke-miterlimit:10;}
	.st5{fill:#30323E;}
	.st6{fill:#FFFFFF;stroke:#FFFFFF;stroke-miterlimit:10;}
	.st7{fill:#FFFFFF;stroke:#164955;stroke-miterlimit:10;}
	.st8{fill:#174955;}
</style>
<path class="st8" d="M46.92,11.79h-5.38C41.46,6.12,36.08,1.55,29.45,1.55c-6.63,0-12.01,4.57-12.09,10.23h-5.74
	c-1.45,0-2.62,1.05-2.62,2.35v15.63c0,1.3,1.17,2.34,2.62,2.34h35.3c1.45,0,2.63-1.04,2.63-2.34V14.14
	C49.55,12.84,48.37,11.79,46.92,11.79z M21.23,11.88c0.73-3.68,4.11-6.45,8.18-6.45c4.07,0,7.46,2.77,8.19,6.45H21.23z"/>
</svg>
